<svg width="27" height="9" viewBox="0 0 27 9" fill="none" xmlns="http://www.w3.org/2000/svg">
<path d="M3.05859 0.46875L5.25 6.65625L7.42969 0.46875H9.73828V9H7.97461V6.66797L8.15039 2.64258L5.84766 9H4.64062L2.34375 2.64844L2.51953 6.66797V9H0.761719V0.46875H3.05859ZM16.1953 7.24219H13.1133L12.5273 9H10.6582L13.834 0.46875H15.4629L18.6562 9H16.7871L16.1953 7.24219ZM13.5879 5.81836H15.7207L14.6484 2.625L13.5879 5.81836ZM22.5059 3.41016L24.1055 0.46875H26.127L23.6426 4.69922L26.1914 9H24.1465L22.5059 6.01172L20.8652 9H18.8203L21.3691 4.69922L18.8848 0.46875H20.9062L22.5059 3.41016Z" fill="#47C880"/>
</svg>
