<svg width="67" height="28" viewBox="0 0 67 28" fill="none" xmlns="http://www.w3.org/2000/svg">
<path d="M49.3 21.9894V20.3882L46.0978 18.7871L42.8955 20.3882V21.9894C42.8955 22.8967 43.5893 23.5905 44.4966 23.5905C45.4039 23.5905 46.0978 22.8967 46.0978 21.9894C46.0978 22.8967 46.7916 23.5905 47.6989 23.5905C48.6062 23.5905 49.3 22.8967 49.3 21.9894Z" fill="white"/>
<path d="M46.0444 15.5844C46.0444 15.5844 44.4966 12.4355 38.5191 12.4355C32.5416 12.4355 31.8478 22.2558 25.123 17.5591C25.123 17.5591 28.9124 27.4327 39.4264 22.8429L45.991 19.5872V15.5844H46.0444Z" fill="#594A42"/>
<path d="M46.0444 15.5844C46.0444 15.5844 47.5922 12.4355 53.5697 12.4355C59.5472 12.4355 60.2411 22.2558 66.9658 17.5591C66.9658 17.5591 63.1765 27.4327 52.6624 22.8429L46.0978 19.5872V15.5844H46.0444Z" fill="#594A42"/>
<path d="M46.2046 0C42.949 0 39.9602 2.02809 37.6653 5.01685C36.3844 6.67135 36.3844 8.91292 37.6653 10.5674C40.0136 13.5562 42.949 15.5843 46.2046 15.5843C49.4602 15.5843 52.449 13.5562 54.7439 10.5674C56.0248 8.91292 56.0248 6.67135 54.7439 5.01685C52.449 2.02809 49.4602 0 46.2046 0Z" fill="black"/>
<path d="M6.35313 26.1481C3.1356 25.4317 1.97687 23.0382 1.74049 20.8267C1.57449 15.5434 10.7469 19.1531 11.5256 19.6027C10.751 23.5648 9.57066 26.8644 6.35313 26.1481Z" fill="#9B8579"/>
</svg>
