<svg width="77" height="51" viewBox="0 0 77 51" fill="none" xmlns="http://www.w3.org/2000/svg">
<g clip-path="url(#clip0_1033_4852)">
<g clip-path="url(#clip1_1033_4852)">
<path d="M19.2135 30.9553C20.982 30.9553 22.4157 29.5216 22.4157 27.753C22.4157 25.9845 20.982 24.5508 19.2135 24.5508C17.4449 24.5508 16.0112 25.9845 16.0112 27.753C16.0112 29.5216 17.4449 30.9553 19.2135 30.9553Z" fill="#9B8579"/>
<path d="M57.6407 30.9553C59.4093 30.9553 60.843 29.5216 60.843 27.753C60.843 25.9845 59.4093 24.5508 57.6407 24.5508C55.8722 24.5508 54.4385 25.9845 54.4385 27.753C54.4385 29.5216 55.8722 30.9553 57.6407 30.9553Z" fill="#9B8579"/>
<path d="M18.7864 30.7418C19.8181 30.7418 20.6544 29.9055 20.6544 28.8738C20.6544 27.8422 19.8181 27.0059 18.7864 27.0059C17.7548 27.0059 16.9185 27.8422 16.9185 28.8738C16.9185 29.9055 17.7548 30.7418 18.7864 30.7418Z" fill="black" fill-opacity="0.1"/>
<path d="M58.0677 30.6344C59.0993 30.6344 59.9357 29.7981 59.9357 28.7664C59.9357 27.7348 59.0993 26.8984 58.0677 26.8984C57.036 26.8984 56.1997 27.7348 56.1997 28.7664C56.1997 29.7981 57.036 30.6344 58.0677 30.6344Z" fill="black" fill-opacity="0.1"/>
<path d="M0 95.0004C0 52.5706 17.2388 18.1465 38.427 18.1465C59.6152 18.1465 76.8539 52.5706 76.8539 95.0004H0Z" fill="#9B8579"/>
<path opacity="0.1" d="M38.4272 59.7757C31.3289 59.7757 22.416 59.0285 22.416 50.169C22.416 41.3094 31.3289 30.9555 38.4272 30.9555C45.5255 30.9555 54.4384 41.3094 54.4384 50.169C54.4384 59.0285 45.5255 59.7757 38.4272 59.7757ZM67.5143 44.6718C60.4693 28.447 50.0087 18.1465 38.4272 18.1465C26.8457 18.1465 16.3851 28.447 9.34011 44.6718C4.43 56.0397 12.489 69.0088 24.871 69.3824C25.1379 69.3824 25.3514 69.3824 25.6182 69.3824C26.8991 69.3824 28.18 69.2757 29.4075 69.1156C35.3317 68.2083 41.416 68.2083 47.3935 69.1156C48.621 69.2757 49.9019 69.3824 51.1828 69.3824C51.4497 69.3824 51.6632 69.3824 51.93 69.3824C64.3654 69.0088 72.4244 56.0931 67.5143 44.6718Z" fill="black"/>
<g opacity="0.5">
<g opacity="0.5">
<path opacity="0.5" d="M38.6941 46.9668H38.1604V50.169H38.6941V46.9668Z" fill="black"/>
<path opacity="0.5" d="M38.3026 49.9316L31.9061 53.1299L32.1448 53.6072L38.5413 50.409L38.3026 49.9316Z" fill="black"/>
<path opacity="0.5" d="M38.5491 49.9328L38.3104 50.4102L44.7069 53.6084L44.9456 53.131L38.5491 49.9328Z" fill="black"/>
</g>
</g>
<path opacity="0.5" d="M30.6701 30.157C30.0296 29.303 28.8555 28.289 27.4678 27.8087C26.774 27.5952 26.0802 27.5418 25.333 27.7019C24.5858 27.862 23.8386 28.289 23.0914 29.0896L22.8779 28.9294C23.6251 28.1289 24.4257 27.6485 25.2262 27.4884C26.0268 27.275 26.774 27.3817 27.5212 27.5952C28.9622 28.0755 30.1364 29.1429 30.8302 29.9969L30.6701 30.157Z" fill="#574A43"/>
<path opacity="0.5" d="M45.8187 30.157C46.4592 29.303 47.6333 28.289 49.021 27.8087C49.7148 27.5952 50.4086 27.5418 51.1558 27.7019C51.903 27.862 52.6502 28.289 53.3974 29.0896L53.6108 28.9294C52.8636 28.1289 52.0631 27.6485 51.2625 27.4884C50.462 27.275 49.7148 27.3817 48.9676 27.5952C47.5266 28.0755 46.3524 29.1429 45.6586 29.9969L45.8187 30.157Z" fill="#574A43"/>
<path opacity="0.25" d="M25.6178 40.4014H6.4043V40.6682H25.6178V40.4014Z" fill="black"/>
<path opacity="0.25" d="M25.6192 40.4L6.40381 43.6025L6.44768 43.8658L25.6631 40.6632L25.6192 40.4Z" fill="black"/>
<path opacity="0.25" d="M70.4493 40.4014H51.2358V40.6682H70.4493V40.4014Z" fill="black"/>
<path opacity="0.25" d="M51.28 40.4594L51.2361 40.7227L70.4515 43.9252L70.4954 43.662L51.28 40.4594Z" fill="black"/>
<path d="M26.5919 27.526C33.3163 23.2693 38.1924 18.91 37.483 17.7893C36.7735 16.6685 30.7472 19.2107 24.0227 23.4674C17.2983 27.7241 12.4222 32.0833 13.1316 33.2041C13.8411 34.3248 19.8674 31.7826 26.5919 27.526Z" fill="black"/>
<path opacity="0.25" d="M26.5919 27.526C33.3163 23.2693 38.1924 18.91 37.483 17.7893C36.7735 16.6685 30.7472 19.2107 24.0227 23.4674C17.2983 27.7241 12.4222 32.0833 13.1316 33.2041C13.8411 34.3248 19.8674 31.7826 26.5919 27.526Z" fill="url(#paint0_linear_1033_4852)"/>
<path d="M28.1485 3.044C27.3281 2.04735 21.3458 4.57096 14.7168 8.76721C8.08784 12.9635 3.24734 17.2909 3.79716 18.4588C3.79716 18.4588 3.79716 18.4588 3.8257 18.5039C3.8828 18.5941 3.95644 18.6106 4.05862 18.6723L16.8762 30.1397C17.333 30.8612 21.3853 29.1804 25.8497 26.3543C30.3142 23.5283 33.5958 20.6298 33.1105 19.8632L28.2296 3.37166C28.2176 3.25293 28.2342 3.17928 28.1485 3.044C28.1771 3.08909 28.1771 3.08909 28.1485 3.044Z" fill="black"/>
<path opacity="0.25" d="M17.286 12.8258C24.0104 8.5691 28.8865 4.20984 28.1771 3.08909C27.4676 1.96835 21.4413 4.51053 14.7168 8.76721C7.99238 13.0239 3.11626 17.3831 3.8257 18.5039C4.53515 19.6246 10.5615 17.0825 17.286 12.8258Z" fill="url(#paint1_linear_1033_4852)"/>
<path opacity="0.1" d="M32.2621 16.9262C30.3094 18.7308 27.2954 20.9545 23.8231 23.1525C20.3508 25.3506 17.0514 27.1233 14.5848 28.1162L16.8764 30.1397C17.3331 30.8612 21.3855 29.1803 25.8499 26.3543C30.3143 23.5283 33.5959 20.6298 33.1106 19.8632L32.2621 16.9262Z" fill="white"/>
<path d="M24.0039 31.5918C24.0039 31.3531 24.0285 31.1211 24.0749 30.8991C24.123 30.6685 24.1946 30.4486 24.2867 30.2431C25.486 29.1454 28.1503 29.1805 28.8405 30.492C28.9591 30.8315 28.922 30.8678 28.922 31.2568C27.6741 32.0514 25.7856 32.6557 24.0749 31.9812C24.0285 31.7591 24.0039 31.8304 24.0039 31.5918Z" fill="black"/>
</g>
<path d="M52.7021 31.8369C52.7021 31.5982 52.6779 31.3662 52.6321 31.1442C52.5845 30.9136 52.5138 30.6937 52.4229 30.4882C51.2385 29.3905 48.6073 29.4256 47.9257 30.7371C47.8086 31.0766 47.8452 31.1129 47.8452 31.5019C49.0776 32.2965 50.9427 32.9008 52.6321 32.2263C52.6779 32.0043 52.7021 32.0755 52.7021 31.8369Z" fill="black"/>
</g>
<defs>
<linearGradient id="paint0_linear_1033_4852" x1="13.144" y1="33.2237" x2="37.4954" y2="17.8089" gradientUnits="userSpaceOnUse">
<stop stop-color="white"/>
<stop offset="1" stop-color="white" stop-opacity="0"/>
</linearGradient>
<linearGradient id="paint1_linear_1033_4852" x1="3.8257" y1="18.5039" x2="28.1771" y2="3.08909" gradientUnits="userSpaceOnUse">
<stop stop-color="white"/>
<stop offset="1" stop-color="white" stop-opacity="0"/>
</linearGradient>
<clipPath id="clip0_1033_4852">
<rect width="77" height="51" fill="white"/>
</clipPath>
<clipPath id="clip1_1033_4852">
<rect width="76.8539" height="95" fill="white"/>
</clipPath>
</defs>
</svg>
