<svg width="77" height="95" fill="none" xmlns="http://www.w3.org/2000/svg">
  <g clip-path="url(#a)">
    <path d="M19.214 30.955a3.202 3.202 0 1 0 0-6.404 3.202 3.202 0 0 0 0 6.404ZM57.64 30.955a3.202 3.202 0 1 0 0-6.404 3.202 3.202 0 0 0 0 6.404Z" fill="#9B8579"/>
    <path d="M18.786 30.741a1.868 1.868 0 1 0 0-3.736 1.868 1.868 0 0 0 0 3.736ZM58.067 30.635a1.868 1.868 0 1 0 0-3.736 1.868 1.868 0 0 0 0 3.736Z" fill="#000" fill-opacity=".1"/>
    <path d="M0 95c0-42.43 17.239-76.854 38.427-76.854S76.854 52.57 76.854 95H0Z" fill="#9B8579"/>
    <path opacity=".1" d="M38.427 59.775c-7.098 0-16.011-.747-16.011-9.606 0-8.86 8.913-19.214 16.011-19.214 7.099 0 16.011 10.354 16.011 19.214 0 8.859-8.913 9.606-16.01 9.606Zm29.087-15.104C60.47 28.447 50.01 18.146 38.427 18.146c-11.581 0-22.042 10.3-29.087 26.525C4.43 56.04 12.49 69.008 24.871 69.382h.747c1.281 0 2.562-.107 3.79-.267a59.765 59.765 0 0 1 17.986 0c1.227.16 2.508.267 3.789.267h.747c12.435-.374 20.494-13.29 15.584-24.71Z" fill="#000"/>
    <path d="M27.22 34.157c.884 0 1.6-1.433 1.6-3.202 0-1.768-.716-3.202-1.6-3.202-.885 0-1.602 1.434-1.602 3.202 0 1.769.717 3.202 1.601 3.202ZM49.634 34.157c.885 0 1.601-1.433 1.601-3.202 0-1.768-.716-3.202-1.6-3.202-.885 0-1.602 1.434-1.602 3.202 0 1.769.717 3.202 1.601 3.202Z" fill="#000"/>
    <path d="M41.63 53.37v-1.6l-3.203-1.602-3.202 1.602v1.6c0 .908.693 1.602 1.6 1.602.908 0 1.602-.694 1.602-1.601 0 .907.694 1.6 1.601 1.6s1.601-.693 1.601-1.6Z" fill="#fff"/>
    <g opacity=".5" fill="#000">
      <path opacity=".5" d="M38.693 46.966h-.534v3.203h.534v-3.203Z"/>
      <path opacity=".5" d="m38.302 49.93-6.397 3.199.239.477 6.396-3.198-.238-.477Z"/>
      <path opacity=".5" d="m38.548 49.932-.238.477 6.396 3.198.239-.477-6.397-3.198Z"/>
    </g>
    <path d="M38.373 46.966s-1.547-3.149-7.525-3.149c-5.977 0-6.671 9.82-13.396 5.124 0 0 3.79 9.874 14.303 5.284l6.565-3.256v-4.003h.053ZM38.373 46.966s1.548-3.149 7.525-3.149c5.978 0 6.672 9.82 13.396 5.124 0 0-3.789 9.874-14.303 5.284l-6.565-3.256v-4.003h-.053Z" fill="#594A42"/>
    <path opacity=".5" d="M45.738 24.124c.64-.854 1.815-1.868 3.203-2.348a4.122 4.122 0 0 1 2.134-.107c.747.16 1.495.587 2.242 1.387l.213-.16c-.747-.8-1.547-1.28-2.348-1.44-.8-.214-1.548-.107-2.295.106-1.44.48-2.615 1.548-3.309 2.402l.16.16ZM31.115 27.326c-.64-.854-1.814-1.868-3.202-2.348a4.122 4.122 0 0 0-2.135-.107c-.747.16-1.494.587-2.241 1.388l-.214-.16c.747-.801 1.548-1.282 2.349-1.442.8-.213 1.547-.106 2.294.107 1.441.48 2.616 1.548 3.31 2.402l-.16.16Z" fill="#574A43"/>
    <path d="M57.125 30.879c-.057 3.374-.364 13.506 6.348 27.019 6.433 12.952.6 32.08-3.088 37.054" stroke="url(#b)" stroke-width=".335" stroke-linecap="round" stroke-linejoin="round" stroke-dasharray="0.17 0.67"/>
    <path opacity=".25" d="M25.618 40.402H6.404v.267h19.214v-.267Z" fill="#000"/>
    <path opacity=".25" d="M25.619 40.4 6.403 43.602l.044.263 19.216-3.202-.044-.263Z" fill="#000"/>
    <path d="M38.428 22.202c7.958 0 14.41-1.075 14.41-2.401 0-1.327-6.452-2.402-14.41-2.402-7.959 0-14.41 1.075-14.41 2.402 0 1.326 6.451 2.401 14.41 2.401Z" fill="#000"/>
    <path opacity=".25" d="M38.428 22.202c7.958 0 14.41-1.075 14.41-2.401 0-1.327-6.452-2.402-14.41-2.402-7.959 0-14.41 1.075-14.41 2.402 0 1.326 6.451 2.401 14.41 2.401Z" fill="url(#c)"/>
    <path d="M52.838 2.348C52.678 1.068 46.273 0 38.428 0c-7.846 0-14.25 1.067-14.41 2.348v.054c0 .106.053.16.106.267l4.697 16.544c0 .854 4.323 1.602 9.607 1.602 5.283 0 9.606-.694 9.606-1.602L52.731 2.67c.053-.107.107-.16.107-.32 0 .053 0 .053 0 0Z" fill="#000"/>
    <path opacity=".25" d="M38.428 4.803c7.958 0 14.41-1.075 14.41-2.401C52.838 1.075 46.386 0 38.428 0c-7.959 0-14.41 1.075-14.41 2.402 0 1.326 6.451 2.401 14.41 2.401Z" fill="url(#d)"/>
    <path opacity=".1" d="M48.888 16.278c-2.615.48-6.351.748-10.46.748-4.11 0-7.846-.267-10.461-.748l.854 2.936c0 .854 4.323 1.6 9.607 1.6 5.283 0 9.606-.693 9.606-1.6l.854-2.936Z" fill="#fff"/>
    <path d="M50.382 37.36a6.671 6.671 0 1 0 0-13.343 6.671 6.671 0 0 0 0 13.343Z" fill="url(#e)" fill-opacity=".25" stroke="#fff" stroke-width=".26" stroke-miterlimit="10"/>
    <path d="M38.533 31.382c-3.255 0-6.244 2.028-8.54 5.017a4.49 4.49 0 0 0 0 5.55c2.35 2.989 5.285 5.017 8.54 5.017 3.256 0 6.245-2.028 8.54-5.017a4.49 4.49 0 0 0 0-5.55c-2.295-2.99-5.284-5.017-8.54-5.017Z" fill="#000"/>
    <path opacity=".25" d="M70.45 40.402H51.236v.267H70.45v-.267Z" fill="#000"/>
    <path opacity=".25" d="m51.28 40.46-.044.263 19.216 3.202.044-.263-19.216-3.203Z" fill="#000"/>
  </g>
  <defs>
    <linearGradient id="b" x1="60.569" y1="30.879" x2="60.569" y2="94.952" gradientUnits="userSpaceOnUse">
      <stop stop-color="#fff"/>
      <stop offset="1" stop-color="#fff" stop-opacity="0"/>
    </linearGradient>
    <linearGradient id="c" x1="24.018" y1="19.824" x2="52.838" y2="19.824" gradientUnits="userSpaceOnUse">
      <stop stop-color="#fff"/>
      <stop offset="1" stop-color="#fff" stop-opacity="0"/>
    </linearGradient>
    <linearGradient id="d" x1="24.018" y1="2.402" x2="52.838" y2="2.402" gradientUnits="userSpaceOnUse">
      <stop stop-color="#fff"/>
      <stop offset="1" stop-color="#fff" stop-opacity="0"/>
    </linearGradient>
    <linearGradient id="e" x1="45.691" y1="25.979" x2="55.118" y2="35.405" gradientUnits="userSpaceOnUse">
      <stop stop-color="#fff"/>
      <stop offset="1" stop-color="#fff" stop-opacity="0"/>
    </linearGradient>
    <clipPath id="a">
      <path fill="#fff" d="M0 0h76.854v95H0z"/>
    </clipPath>
  </defs>
</svg>