<svg width="176" height="70" viewBox="0 0 176 70" fill="none" xmlns="http://www.w3.org/2000/svg">
<g filter="url(#filter0_d_1711_2684)">
<rect x="2" width="172" height="66" rx="4" fill="#D5EFE6"/>
</g>
<path d="M63 66C63 38.3843 74.2037 16 88 16C101.796 16 113 38.3843 113 66H63Z" fill="#9B8579"/>
<path d="M75.5 24.3333C76.6506 24.3333 77.5833 23.4006 77.5833 22.25C77.5833 21.0994 76.6506 20.1667 75.5 20.1667C74.3494 20.1667 73.4167 21.0994 73.4167 22.25C73.4167 23.4006 74.3494 24.3333 75.5 24.3333Z" fill="#9B8579"/>
<path d="M100.5 24.3333C101.651 24.3333 102.583 23.4006 102.583 22.25C102.583 21.0994 101.651 20.1667 100.5 20.1667C99.3494 20.1667 98.4167 21.0994 98.4167 22.25C98.4167 23.4006 99.3494 24.3333 100.5 24.3333Z" fill="#9B8579"/>
<path d="M80.7083 26.4167C81.2836 26.4167 81.75 25.4839 81.75 24.3333C81.75 23.1827 81.2836 22.25 80.7083 22.25C80.133 22.25 79.6667 23.1827 79.6667 24.3333C79.6667 25.4839 80.133 26.4167 80.7083 26.4167Z" fill="black"/>
<path d="M95.2917 26.4167C95.867 26.4167 96.3333 25.4839 96.3333 24.3333C96.3333 23.1827 95.867 22.25 95.2917 22.25C94.7164 22.25 94.25 23.1827 94.25 24.3333C94.25 25.4839 94.7164 26.4167 95.2917 26.4167Z" fill="black"/>
<path d="M88.0694 24.6111C85.963 24.6111 84.0185 25.9306 82.5139 27.875C81.6806 28.9398 81.6806 30.4213 82.5139 31.4861C84.0417 33.4306 85.963 34.75 88.0694 34.75C90.1759 34.75 92.1204 33.4306 93.625 31.4861C94.4583 30.4213 94.4583 28.9398 93.625 27.875C92.1204 25.9306 90.1759 24.6111 88.0694 24.6111Z" fill="black"/>
<g opacity="0.5">
<path opacity="0.5" d="M87.9665 34.7526L87.9948 36.8357" stroke="black" stroke-miterlimit="10"/>
<path opacity="0.5" d="M82.3424 39.7432L86.1179 37.0144" stroke="black" stroke-miterlimit="10"/>
<path opacity="0.5" d="M94.1757 39.4144L90.2017 36.9836" stroke="black" stroke-miterlimit="10"/>
</g>
<path opacity="0.25" d="M79.6667 28.5H67.1667" stroke="black" stroke-miterlimit="10"/>
<path opacity="0.25" d="M79.6667 28.5L67.1667 30.5833" stroke="black" stroke-miterlimit="10"/>
<path opacity="0.25" d="M108.833 28.5H96.3333" stroke="black" stroke-miterlimit="10"/>
<path opacity="0.25" d="M108.833 30.5833L96.3333 28.5" stroke="black" stroke-miterlimit="10"/>
<path opacity="0.1" d="M106.912 33.2685C102.329 22.6898 95.5463 16 88 16C80.4537 16 73.6713 22.6898 69.088 33.2685C65.8935 40.6759 71.125 49.1019 79.1806 49.3333C79.3426 49.3333 79.5046 49.3333 79.6667 49.3333C80.5 49.3333 81.3333 49.2639 82.1435 49.1481C86.0093 48.5694 89.9676 48.5694 93.8565 49.1481C94.6667 49.2639 95.5 49.3333 96.3333 49.3333C96.4954 49.3333 96.6574 49.3333 96.8194 49.3333C104.875 49.1019 110.106 40.6759 106.912 33.2685ZM88 43.0833C83.3935 43.0833 77.5833 42.5972 77.5833 36.8333C77.5833 31.0694 83.3935 24.3333 88 24.3333C92.6065 24.3333 98.4167 31.0694 98.4167 36.8333C98.4167 42.5972 92.6065 43.0833 88 43.0833Z" fill="black"/>
<defs>
<filter id="filter0_d_1711_2684" x="0" y="0" width="176" height="70" filterUnits="userSpaceOnUse" color-interpolation-filters="sRGB">
<feFlood flood-opacity="0" result="BackgroundImageFix"/>
<feColorMatrix in="SourceAlpha" type="matrix" values="0 0 0 0 0 0 0 0 0 0 0 0 0 0 0 0 0 0 127 0" result="hardAlpha"/>
<feOffset dy="2"/>
<feGaussianBlur stdDeviation="1"/>
<feComposite in2="hardAlpha" operator="out"/>
<feColorMatrix type="matrix" values="0 0 0 0 0 0 0 0 0 0.027451 0 0 0 0 0.254902 0 0 0 0.05 0"/>
<feBlend mode="normal" in2="BackgroundImageFix" result="effect1_dropShadow_1711_2684"/>
<feBlend mode="normal" in="SourceGraphic" in2="effect1_dropShadow_1711_2684" result="shape"/>
</filter>
</defs>
</svg>
