<svg width="185" height="185" fill="none" xmlns="http://www.w3.org/2000/svg">
  <circle cx="92.5" cy="92.5" r="92.5" fill="#fff"/>
  <path d="M171.98 134.026c-1.738 3.347-6.036 4.335-9.317 2.242L97.094 94.427a3 3 0 0 1-.825-4.276l45.268-63.25c2.266-3.165 6.622-3.849 9.482-1.39a89.002 89.002 0 0 1 20.961 108.515Z" fill="#46C285" stroke="#fff" stroke-width="2" stroke-linejoin="round"/>
  <path d="m94.422 95.093.536-.84-.536.84 67.175 42.845c3.282 2.093 4.197 6.407 1.894 9.394a89.005 89.005 0 0 1-74.17 34.592 88.997 88.997 0 0 1-71.06-40.6c-2.047-3.167-.779-7.39 2.665-9.205l70.484-37.15a3 3 0 0 1 3.012.124Z" fill="#594A42" stroke="#fff" stroke-width="2" stroke-linejoin="round"/>
  <path d="M138.157 16.307c3.25 1.913 4.008 6.257 1.744 9.422L92.738 91.648c-.272.38-.629.691-1.042.909l-71.711 37.777c-3.444 1.814-7.644.472-9.099-3.007a89.002 89.002 0 0 1 127.271-111.02Z" fill="#9B8579" stroke="#fff" stroke-width="2" stroke-linejoin="round"/>
</svg>