<svg width="50" height="50" viewBox="0 0 50 50" fill="none" xmlns="http://www.w3.org/2000/svg">
<path d="M0 50C0 22.3843 11.2037 0 25 0C38.7963 0 50 22.3843 50 50H0Z" fill="#9B8579"/>
<path d="M12.5 8.33333C13.6506 8.33333 14.5833 7.40059 14.5833 6.25C14.5833 5.09941 13.6506 4.16667 12.5 4.16667C11.3494 4.16667 10.4167 5.09941 10.4167 6.25C10.4167 7.40059 11.3494 8.33333 12.5 8.33333Z" fill="#9B8579"/>
<path d="M37.5 8.33333C38.6506 8.33333 39.5833 7.40059 39.5833 6.25C39.5833 5.09941 38.6506 4.16667 37.5 4.16667C36.3494 4.16667 35.4167 5.09941 35.4167 6.25C35.4167 7.40059 36.3494 8.33333 37.5 8.33333Z" fill="#9B8579"/>
<path d="M17.7083 10.4167C18.2836 10.4167 18.75 9.48393 18.75 8.33333C18.75 7.18274 18.2836 6.25 17.7083 6.25C17.133 6.25 16.6667 7.18274 16.6667 8.33333C16.6667 9.48393 17.133 10.4167 17.7083 10.4167Z" fill="black"/>
<path d="M32.2917 10.4167C32.867 10.4167 33.3333 9.48393 33.3333 8.33333C33.3333 7.18274 32.867 6.25 32.2917 6.25C31.7164 6.25 31.25 7.18274 31.25 8.33333C31.25 9.48393 31.7164 10.4167 32.2917 10.4167Z" fill="black"/>
<path d="M25.0694 8.61111C22.963 8.61111 21.0185 9.93056 19.5139 11.875C18.6806 12.9398 18.6806 14.4213 19.5139 15.4861C21.0417 17.4306 22.963 18.75 25.0694 18.75C27.1759 18.75 29.1204 17.4306 30.625 15.4861C31.4583 14.4213 31.4583 12.9398 30.625 11.875C29.1204 9.93056 27.1759 8.61111 25.0694 8.61111Z" fill="black"/>
<path d="M27.0833 22.9167V21.875L25 20.8333L22.9167 21.875V22.9167C22.9167 23.4954 23.3796 23.9583 23.9583 23.9583C24.537 23.9583 25 23.4954 25 22.9167C25 23.4954 25.463 23.9583 26.0417 23.9583C26.6204 23.9583 27.0833 23.4954 27.0833 22.9167Z" fill="white"/>
<g opacity="0.5">
<path opacity="0.5" d="M25 18.75V20.8333" stroke="black" stroke-miterlimit="10"/>
<path opacity="0.5" d="M20.8333 22.9167L25 20.8333" stroke="black" stroke-miterlimit="10"/>
<path opacity="0.5" d="M29.1667 22.9167L25 20.8333" stroke="black" stroke-miterlimit="10"/>
</g>
<path opacity="0.25" d="M16.6667 12.5H4.16667" stroke="black" stroke-miterlimit="10"/>
<path opacity="0.25" d="M16.6667 12.5L4.16667 14.5833" stroke="black" stroke-miterlimit="10"/>
<path opacity="0.25" d="M45.8333 12.5H33.3333" stroke="black" stroke-miterlimit="10"/>
<path opacity="0.25" d="M45.8333 14.5833L33.3333 12.5" stroke="black" stroke-miterlimit="10"/>
<path opacity="0.1" d="M43.912 17.2685C39.3287 6.68981 32.5463 0 25 0C17.4537 0 10.6713 6.68981 6.08797 17.2685C2.89352 24.6759 8.12501 33.1019 16.1806 33.3333C16.3426 33.3333 16.5046 33.3333 16.6667 33.3333C17.5 33.3333 18.3333 33.2639 19.1435 33.1481C23.0093 32.5694 26.9676 32.5694 30.8565 33.1481C31.6667 33.2639 32.5 33.3333 33.3333 33.3333C33.4954 33.3333 33.6574 33.3333 33.8194 33.3333C41.875 33.1019 47.1065 24.6759 43.912 17.2685ZM25 27.0833C20.3935 27.0833 14.5833 26.5972 14.5833 20.8333C14.5833 15.0694 20.3935 8.33333 25 8.33333C29.6065 8.33333 35.4167 15.0694 35.4167 20.8333C35.4167 26.5972 29.6065 27.0833 25 27.0833Z" fill="black"/>
<path d="M25 45.0625C27.2437 45.0625 29.0625 43.2437 29.0625 41C29.0625 38.7563 27.2437 36.9375 25 36.9375C22.7563 36.9375 20.9375 38.7563 20.9375 41C20.9375 43.2437 22.7563 45.0625 25 45.0625Z" fill="#E8BF2E"/>
<path d="M25 36.9375C24.0753 36.9367 23.1782 37.2529 22.4584 37.8334C21.8313 38.6134 21.5144 39.5976 21.5685 40.597C21.6226 41.5964 22.044 42.5406 22.7517 43.2483C23.4594 43.956 24.4036 44.3774 25.403 44.4315C26.4024 44.4856 27.3866 44.1687 28.1666 43.5416C28.6464 42.9447 28.9477 42.2243 29.0357 41.4636C29.1236 40.7028 28.9945 39.9327 28.6634 39.2421C28.3323 38.5516 27.8126 37.9688 27.1644 37.561C26.5162 37.1532 25.7658 36.937 25 36.9375V36.9375Z" fill="#FED433"/>
<path d="M25 43.8125C26.5533 43.8125 27.8125 42.5533 27.8125 41C27.8125 39.4467 26.5533 38.1875 25 38.1875C23.4467 38.1875 22.1875 39.4467 22.1875 41C22.1875 42.5533 23.4467 43.8125 25 43.8125Z" fill="#FEE88D"/>
<path d="M24.6875 38.5C24.018 38.4995 23.3705 38.7389 22.8625 39.175C22.4022 39.7126 22.1617 40.4041 22.1891 41.1114C22.2164 41.8186 22.5096 42.4894 23.0101 42.9899C23.5106 43.4904 24.1814 43.7836 24.8886 43.8109C25.5959 43.8383 26.2874 43.5978 26.825 43.1375C27.1744 42.7291 27.3995 42.2291 27.4734 41.6968C27.5473 41.1644 27.467 40.622 27.242 40.1339C27.017 39.6458 26.6568 39.2325 26.204 38.9429C25.7513 38.6533 25.225 38.4996 24.6875 38.5V38.5Z" fill="#FFF3C0"/>
<path d="M27.3706 36.1831C27.5107 36.3232 27.6771 36.4344 27.8601 36.5102C28.0432 36.586 28.2394 36.625 28.4375 36.625V36.625C28.6356 36.625 28.8318 36.586 29.0149 36.5102C29.1979 36.4344 29.3643 36.3232 29.5044 36.1831L30.4956 35.1919C30.6357 35.0518 30.7469 34.8854 30.8227 34.7024C30.8985 34.5193 30.9375 34.3231 30.9375 34.125V34.125C30.9375 33.9269 30.8985 33.7307 30.8227 33.5476C30.7469 33.3646 30.6357 33.1982 30.4956 33.0581L28.8794 31.4419C28.7393 31.3018 28.5729 31.1906 28.3899 31.1148C28.2068 31.039 28.0106 31 27.8125 31V31C27.6144 31 27.4182 31.039 27.2351 31.1148C27.0521 31.1906 26.8857 31.3018 26.7456 31.4419L25.7544 32.4331C25.6143 32.5732 25.5031 32.7396 25.4273 32.9226C25.3515 33.1057 25.3125 33.3019 25.3125 33.5V33.5C25.3125 33.6981 25.3515 33.8943 25.4273 34.0774C25.5031 34.2604 25.6143 34.4268 25.7544 34.5669L27.3706 36.1831Z" fill="#E8BF2E"/>
<path d="M28.7581 34.125C28.5074 34.1248 28.267 34.025 28.0897 33.8478C27.9125 33.6705 27.8128 33.4301 27.8125 33.1794C27.8128 32.9114 27.904 32.6515 28.0713 32.4422L28.875 31.4375C28.5918 31.1564 28.2088 30.9989 27.8098 30.9997C27.4108 31.0005 27.0283 31.1594 26.7463 31.4416L26.0675 32.1203C25.9274 32.2604 25.8163 32.4267 25.7404 32.6098C25.6646 32.7929 25.6256 32.9891 25.6256 33.1872C25.6256 33.3853 25.6646 33.5815 25.7404 33.7646C25.8163 33.9476 25.9274 34.114 26.0675 34.2541L26.1859 34.3725L26.4606 34.0978C26.6435 33.9149 26.8916 33.8121 27.1503 33.8121C27.409 33.8121 27.6571 33.9149 27.84 34.0978C28.0229 34.2807 28.1257 34.5288 28.1257 34.7875C28.1257 35.0462 28.0229 35.2943 27.84 35.4772L27.5653 35.7519L27.6838 35.8703C27.8239 36.0104 27.9902 36.1216 28.1732 36.1974C28.3563 36.2732 28.5525 36.3122 28.7506 36.3122C28.9488 36.3122 29.145 36.2732 29.328 36.1974C29.5111 36.1216 29.6774 36.0104 29.8175 35.8703L30.4963 35.1916C30.6364 35.0515 30.7475 34.8851 30.8233 34.7021C30.8992 34.519 30.9382 34.3228 30.9382 34.1247C30.9382 33.9266 30.8992 33.7304 30.8233 33.5473C30.7475 33.3642 30.6364 33.1979 30.4963 33.0578L30.2578 32.8194L29.4972 33.7697C29.4088 33.8808 29.2964 33.9705 29.1684 34.0321C29.0404 34.0936 28.9001 34.1254 28.7581 34.125V34.125Z" fill="#FED433"/>
<path d="M26.7834 34.0334C26.7133 33.9634 26.6578 33.8803 26.6198 33.7887C26.5819 33.6972 26.5624 33.5991 26.5625 33.5C26.5624 33.4008 26.5818 33.3026 26.6197 33.211C26.6577 33.1193 26.7133 33.036 26.7834 32.9659L27.2791 32.4706C27.4206 32.3293 27.6125 32.2499 27.8125 32.25V32.25C27.9116 32.25 28.0097 32.2695 28.1012 32.3074C28.1927 32.3453 28.2759 32.4009 28.3459 32.4709L29.4666 33.5916C29.5366 33.6616 29.5922 33.7448 29.6301 33.8363C29.668 33.9278 29.6875 34.0259 29.6875 34.125V34.125C29.6875 34.2241 29.668 34.3222 29.6301 34.4137C29.5922 34.5052 29.5366 34.5884 29.4666 34.6584L28.9709 35.1541C28.9009 35.2241 28.8177 35.2797 28.7262 35.3176C28.6347 35.3555 28.5366 35.375 28.4375 35.375V35.375C28.3384 35.375 28.2403 35.3555 28.1488 35.3176C28.0573 35.2797 27.9741 35.2241 27.9041 35.1541L26.7834 34.0334Z" fill="white"/>
<path d="M30.8081 32.1206C30.9482 32.2607 31.1146 32.3719 31.2976 32.4477C31.4807 32.5235 31.6769 32.5625 31.875 32.5625C32.0731 32.5625 32.2693 32.5235 32.4524 32.4477C32.6354 32.3719 32.8018 32.2607 32.9419 32.1206L33.9331 31.1294C34.0732 30.9893 34.1844 30.8229 34.2602 30.6399C34.336 30.4568 34.375 30.2606 34.375 30.0625C34.375 29.8644 34.336 29.6682 34.2602 29.4851C34.1844 29.3021 34.0732 29.1357 33.9331 28.9956L32.3169 27.3794C32.1768 27.2393 32.0104 27.1281 31.8274 27.0523C31.6443 26.9765 31.4481 26.9375 31.25 26.9375V26.9375C31.0519 26.9375 30.8557 26.9765 30.6726 27.0523C30.4896 27.1281 30.3232 27.2393 30.1831 27.3794L29.1919 28.3706C29.0518 28.5107 28.9406 28.6771 28.8648 28.8601C28.789 29.0432 28.75 29.2394 28.75 29.4375V29.4375C28.75 29.6356 28.789 29.8318 28.8648 30.0149C28.9406 30.1979 29.0518 30.3643 29.1919 30.5044L30.8081 32.1206Z" fill="#E8BF2E"/>
<path d="M33.9331 28.9956L32.3169 27.3794C32.1768 27.2393 32.0104 27.1281 31.8274 27.0523C31.6443 26.9765 31.4481 26.9374 31.25 26.9374C31.0519 26.9374 30.8557 26.9765 30.6726 27.0523C30.4896 27.1281 30.3232 27.2393 30.1831 27.3794L29.5044 28.0581C29.3643 28.1982 29.2531 28.3646 29.1773 28.5476C29.1015 28.7307 29.0624 28.9269 29.0624 29.125C29.0624 29.3231 29.1015 29.5193 29.1773 29.7024C29.2531 29.8854 29.3643 30.0518 29.5044 30.1919L29.7081 30.3956L30.1909 29.7925C30.3133 29.6395 30.4802 29.5283 30.6686 29.4742C30.8569 29.4202 31.0574 29.426 31.2423 29.4909C31.4272 29.5557 31.5874 29.6764 31.7008 29.8362C31.8141 29.9961 31.875 30.1872 31.875 30.3831C31.8747 30.6511 31.7835 30.911 31.6163 31.1203L31.0903 31.7766L31.1216 31.8078C31.2617 31.9479 31.428 32.0591 31.611 32.1349C31.7941 32.2107 31.9903 32.2497 32.1884 32.2497C32.3866 32.2497 32.5828 32.2107 32.7658 32.1349C32.9489 32.0591 33.1152 31.9479 33.2553 31.8078L33.9341 31.1291C34.0742 30.989 34.1853 30.8226 34.2611 30.6396C34.337 30.4565 34.376 30.2603 34.376 30.0622C34.376 29.864 34.337 29.6679 34.2611 29.4848C34.1853 29.3017 34.0742 29.1354 33.9341 28.9953L33.9331 28.9956Z" fill="#FED433"/>
<path d="M30.2209 29.9709C30.1508 29.9009 30.0953 29.8178 30.0573 29.7262C30.0194 29.6347 29.9999 29.5366 30 29.4375V29.4375C29.9999 29.3383 30.0193 29.2401 30.0572 29.1485C30.0952 29.0568 30.1508 28.9735 30.2209 28.9034L30.7166 28.4081C30.8581 28.2668 31.05 28.1874 31.25 28.1875V28.1875C31.3491 28.1875 31.4472 28.207 31.5387 28.2449C31.6302 28.2828 31.7134 28.3384 31.7834 28.4084L32.9041 29.5291C32.9741 29.5991 33.0297 29.6823 33.0676 29.7738C33.1055 29.8653 33.125 29.9634 33.125 30.0625V30.0625C33.125 30.1616 33.1055 30.2597 33.0676 30.3512C33.0297 30.4427 32.9741 30.5259 32.9041 30.5959L32.4084 31.0916C32.3384 31.1616 32.2552 31.2172 32.1637 31.2551C32.0722 31.293 31.9741 31.3125 31.875 31.3125C31.7759 31.3125 31.6778 31.293 31.5863 31.2551C31.4948 31.2172 31.4116 31.1616 31.3416 31.0916L30.2209 29.9709Z" fill="white"/>
<path d="M28.315 32.6375L30.435 29.9875C30.4943 29.9134 30.5696 29.8535 30.6551 29.8124C30.7407 29.7713 30.8344 29.75 30.9294 29.75C31.0973 29.75 31.2583 29.8167 31.3771 29.9354C31.4958 30.0542 31.5625 30.2152 31.5625 30.3831V30.3831C31.5625 30.5801 31.4955 30.7712 31.3725 30.925L29.2525 33.575C29.1932 33.6491 29.1179 33.709 29.0324 33.7501C28.9468 33.7912 28.8531 33.8125 28.7581 33.8125V33.8125C28.5902 33.8125 28.4292 33.7458 28.3104 33.6271C28.1917 33.5083 28.125 33.3473 28.125 33.1794V33.1794C28.125 32.9824 28.192 32.7913 28.315 32.6375V32.6375Z" fill="#FED433"/>
<path d="M27.6184 35.2566L26.1316 36.7434C26.07 36.805 25.9969 36.8538 25.9165 36.8871C25.8361 36.9204 25.7499 36.9375 25.6628 36.9375V36.9375C25.487 36.9374 25.3185 36.8676 25.1942 36.7433C25.0699 36.619 25.0001 36.4505 25 36.2747C25 36.1876 25.0171 36.1014 25.0504 36.021C25.0837 35.9406 25.1325 35.8675 25.1941 35.8059L26.6809 34.3191C26.7425 34.2575 26.8156 34.2087 26.896 34.1754C26.9764 34.1421 27.0626 34.125 27.1497 34.125V34.125C27.3255 34.1251 27.494 34.1949 27.6183 34.3192C27.7426 34.4435 27.8124 34.612 27.8125 34.7878V34.7878C27.8125 34.8749 27.7954 34.9611 27.7621 35.0415C27.7288 35.1219 27.68 35.195 27.6184 35.2566V35.2566Z" fill="#FED433"/>
<path d="M25 40.6875C24.9382 40.6875 24.8778 40.6692 24.8264 40.6348C24.775 40.6005 24.7349 40.5517 24.7113 40.4946C24.6876 40.4375 24.6814 40.3747 24.6935 40.314C24.7056 40.2534 24.7353 40.1977 24.779 40.154C24.8227 40.1103 24.8784 40.0806 24.939 40.0685C24.9997 40.0564 25.0625 40.0626 25.1196 40.0863C25.1767 40.1099 25.2255 40.15 25.2598 40.2014C25.2942 40.2528 25.3125 40.3132 25.3125 40.375H25.9375C25.9367 40.1818 25.8762 39.9936 25.7643 39.836C25.6525 39.6785 25.4947 39.5594 25.3125 39.495V39.125H24.6875V39.495C24.4792 39.5684 24.3035 39.7131 24.1917 39.9036C24.0798 40.0941 24.039 40.318 24.0764 40.5357C24.1139 40.7534 24.2271 40.9508 24.3962 41.093C24.5652 41.2352 24.7791 41.3129 25 41.3125C25.0618 41.3125 25.1222 41.3308 25.1736 41.3652C25.225 41.3995 25.2651 41.4483 25.2887 41.5054C25.3124 41.5625 25.3186 41.6253 25.3065 41.686C25.2944 41.7466 25.2647 41.8023 25.221 41.846C25.1773 41.8897 25.1216 41.9194 25.061 41.9315C25.0003 41.9436 24.9375 41.9374 24.8804 41.9137C24.8233 41.8901 24.7745 41.85 24.7402 41.7986C24.7058 41.7472 24.6875 41.6868 24.6875 41.625H24.0625C24.0633 41.8182 24.1238 42.0064 24.2357 42.164C24.3475 42.3215 24.5053 42.4406 24.6875 42.505V42.875H25.3125V42.505C25.5208 42.4316 25.6965 42.2869 25.8083 42.0964C25.9202 41.9059 25.961 41.682 25.9236 41.4643C25.8861 41.2466 25.7729 41.0492 25.6038 40.907C25.4348 40.7648 25.2209 40.6871 25 40.6875Z" fill="#FED433"/>
<path d="M30.9294 29.75C30.8344 29.75 30.7407 29.7713 30.6551 29.8124C30.5696 29.8535 30.4943 29.9134 30.435 29.9875L28.315 32.6375C28.2665 32.6998 28.2267 32.7683 28.1966 32.8413C28.2442 32.9356 28.3148 33.0164 28.4019 33.0763C28.489 33.1363 28.5897 33.1733 28.6948 33.1842C28.7999 33.195 28.9061 33.1792 29.0036 33.1383C29.101 33.0974 29.1866 33.0326 29.2525 32.95L31.3725 30.3C31.421 30.2377 31.4608 30.1692 31.4909 30.0962C31.4384 29.9924 31.3581 29.905 31.259 29.8439C31.1599 29.7828 31.0458 29.7503 30.9294 29.75Z" fill="#FEE88D"/>
<path d="M27.1497 34.125C27.0626 34.1249 26.9764 34.142 26.896 34.1753C26.8155 34.2086 26.7425 34.2575 26.6809 34.3191L25.1941 35.8059C25.1492 35.8522 25.1114 35.9049 25.0819 35.9622C25.1303 36.0534 25.1994 36.132 25.2837 36.1916C25.368 36.2512 25.4651 36.2901 25.5673 36.3053C25.6694 36.3205 25.7737 36.3116 25.8717 36.2791C25.9697 36.2466 26.0587 36.1916 26.1316 36.1184L27.6184 34.6316C27.6632 34.5852 27.701 34.5326 27.7306 34.4753C27.6746 34.3698 27.5909 34.2815 27.4886 34.2198C27.3863 34.1581 27.2692 34.1253 27.1497 34.125V34.125Z" fill="#FEE88D"/>
<path d="M22.6294 36.1831C22.4893 36.3232 22.3229 36.4344 22.1399 36.5102C21.9568 36.586 21.7606 36.625 21.5625 36.625C21.3644 36.625 21.1682 36.586 20.9851 36.5102C20.8021 36.4344 20.6357 36.3232 20.4956 36.1831L19.5044 35.1919C19.3643 35.0518 19.2531 34.8854 19.1773 34.7024C19.1015 34.5193 19.0625 34.3231 19.0625 34.125V34.125C19.0625 33.9269 19.1015 33.7307 19.1773 33.5476C19.2531 33.3646 19.3643 33.1982 19.5044 33.0581L21.1206 31.4419C21.2607 31.3018 21.4271 31.1906 21.6101 31.1148C21.7932 31.039 21.9894 31 22.1875 31C22.3856 31 22.5818 31.039 22.7649 31.1148C22.9479 31.1906 23.1143 31.3018 23.2544 31.4419L24.2456 32.4331C24.3857 32.5732 24.4969 32.7396 24.5727 32.9226C24.6485 33.1057 24.6875 33.3019 24.6875 33.5V33.5C24.6875 33.6981 24.6485 33.8943 24.5727 34.0774C24.4969 34.2604 24.3857 34.4268 24.2456 34.5669L22.6294 36.1831Z" fill="#E8BF2E"/>
<path d="M21.2419 34.125C21.4926 34.1248 21.733 34.025 21.9103 33.8478C22.0875 33.6705 22.1872 33.4301 22.1875 33.1794C22.1872 32.9114 22.096 32.6515 21.9287 32.4422L21.125 31.4375C21.4082 31.1564 21.7912 30.9989 22.1902 30.9997C22.5892 31.0005 22.9717 31.1594 23.2537 31.4416L23.9325 32.1203C24.0726 32.2604 24.1837 32.4267 24.2596 32.6098C24.3354 32.7929 24.3744 32.9891 24.3744 33.1872C24.3744 33.3853 24.3354 33.5815 24.2596 33.7646C24.1837 33.9476 24.0726 34.114 23.9325 34.2541L23.8141 34.3725L23.5394 34.0978C23.4488 34.0072 23.3413 33.9354 23.2229 33.8864C23.1046 33.8374 22.9778 33.8121 22.8497 33.8121C22.7216 33.8121 22.5948 33.8374 22.4764 33.8864C22.3581 33.9354 22.2506 34.0072 22.16 34.0978C21.9771 34.2807 21.8743 34.5288 21.8743 34.7875C21.8743 35.0462 21.9771 35.2943 22.16 35.4772L22.4347 35.7519L22.3162 35.8703C22.1761 36.0104 22.0098 36.1216 21.8268 36.1974C21.6437 36.2732 21.4475 36.3122 21.2494 36.3122C21.0512 36.3122 20.855 36.2732 20.672 36.1974C20.4889 36.1216 20.3226 36.0104 20.1825 35.8703L19.5037 35.1916C19.3636 35.0515 19.2525 34.8851 19.1767 34.7021C19.1008 34.519 19.0618 34.3228 19.0618 34.1247C19.0618 33.9266 19.1008 33.7304 19.1767 33.5473C19.2525 33.3642 19.3636 33.1979 19.5037 33.0578L19.7422 32.8194L20.5028 33.7697C20.5912 33.8808 20.7036 33.9705 20.8316 34.0321C20.9596 34.0936 21.0999 34.1254 21.2419 34.125V34.125Z" fill="#FED433"/>
<path d="M23.2166 34.0334C23.2867 33.9634 23.3422 33.8803 23.3802 33.7887C23.4181 33.6972 23.4376 33.5991 23.4375 33.5V33.5C23.4376 33.4008 23.4182 33.3026 23.3803 33.211C23.3423 33.1193 23.2867 33.036 23.2166 32.9659L22.7209 32.4706C22.5794 32.3293 22.3875 32.2499 22.1875 32.25V32.25C22.0884 32.25 21.9903 32.2695 21.8988 32.3074C21.8073 32.3453 21.7241 32.4009 21.6541 32.4709L20.5334 33.5916C20.4634 33.6616 20.4078 33.7448 20.3699 33.8363C20.332 33.9278 20.3125 34.0259 20.3125 34.125C20.3125 34.2241 20.332 34.3222 20.3699 34.4137C20.4078 34.5052 20.4634 34.5884 20.5334 34.6584L21.0291 35.1541C21.0991 35.2241 21.1823 35.2797 21.2738 35.3176C21.3653 35.3555 21.4634 35.375 21.5625 35.375V35.375C21.6616 35.375 21.7597 35.3555 21.8512 35.3176C21.9427 35.2797 22.0259 35.2241 22.0959 35.1541L23.2166 34.0334Z" fill="white"/>
<path d="M19.1919 32.1206C19.0518 32.2607 18.8854 32.3719 18.7024 32.4477C18.5193 32.5235 18.3231 32.5625 18.125 32.5625V32.5625C17.9269 32.5625 17.7307 32.5235 17.5476 32.4477C17.3646 32.3719 17.1982 32.2607 17.0581 32.1206L16.0669 31.1294C15.9268 30.9893 15.8156 30.8229 15.7398 30.6399C15.664 30.4568 15.625 30.2606 15.625 30.0625V30.0625C15.625 29.8644 15.664 29.6682 15.7398 29.4851C15.8156 29.3021 15.9268 29.1357 16.0669 28.9956L17.6831 27.3794C17.8232 27.2393 17.9896 27.1281 18.1726 27.0523C18.3557 26.9765 18.5519 26.9375 18.75 26.9375V26.9375C18.9481 26.9375 19.1443 26.9765 19.3274 27.0523C19.5104 27.1281 19.6768 27.2393 19.8169 27.3794L20.8081 28.3706C20.9482 28.5107 21.0594 28.6771 21.1352 28.8601C21.211 29.0432 21.25 29.2394 21.25 29.4375C21.25 29.6356 21.211 29.8318 21.1352 30.0149C21.0594 30.1979 20.9482 30.3643 20.8081 30.5044L19.1919 32.1206Z" fill="#E8BF2E"/>
<path d="M16.0669 28.9956L17.6831 27.3794C17.8232 27.2393 17.9895 27.1281 18.1726 27.0523C18.3557 26.9765 18.5519 26.9374 18.75 26.9374C18.9481 26.9374 19.1443 26.9765 19.3274 27.0523C19.5104 27.1281 19.6768 27.2393 19.8169 27.3794L20.4956 28.0581C20.6357 28.1982 20.7469 28.3646 20.8227 28.5476C20.8985 28.7307 20.9375 28.9269 20.9375 29.125C20.9375 29.3231 20.8985 29.5193 20.8227 29.7024C20.7469 29.8854 20.6357 30.0518 20.4956 30.1919L20.2919 30.3956L19.8091 29.7925C19.6867 29.6395 19.5197 29.5283 19.3314 29.4742C19.1431 29.4202 18.9426 29.426 18.7577 29.4909C18.5728 29.5557 18.4126 29.6764 18.2992 29.8362C18.1859 29.9961 18.125 30.1872 18.125 30.3831C18.1253 30.6511 18.2165 30.911 18.3837 31.1203L18.9097 31.7766L18.8784 31.8078C18.7383 31.9479 18.572 32.0591 18.3889 32.1349C18.2059 32.2107 18.0097 32.2497 17.8116 32.2497C17.6134 32.2497 17.4172 32.2107 17.2342 32.1349C17.0511 32.0591 16.8848 31.9479 16.7447 31.8078L16.0669 31.1294C15.9268 30.9893 15.8156 30.8229 15.7398 30.6399C15.664 30.4568 15.6249 30.2606 15.6249 30.0625C15.6249 29.8644 15.664 29.6682 15.7398 29.4851C15.8156 29.3021 15.9268 29.1357 16.0669 28.9956V28.9956Z" fill="#FED433"/>
<path d="M19.7791 29.9709C19.8492 29.9009 19.9047 29.8178 19.9427 29.7262C19.9806 29.6347 20.0001 29.5366 20 29.4375V29.4375C20.0001 29.3383 19.9807 29.2401 19.9428 29.1485C19.9048 29.0568 19.8492 28.9735 19.7791 28.9034L19.2834 28.4084C19.2134 28.3384 19.1302 28.2828 19.0387 28.2449C18.9472 28.207 18.8491 28.1875 18.75 28.1875V28.1875C18.6509 28.1875 18.5528 28.207 18.4613 28.2449C18.3698 28.2828 18.2866 28.3384 18.2166 28.4084L17.0959 29.5291C17.0259 29.5991 16.9703 29.6823 16.9324 29.7738C16.8945 29.8653 16.875 29.9634 16.875 30.0625V30.0625C16.875 30.1616 16.8945 30.2597 16.9324 30.3512C16.9703 30.4427 17.0259 30.5259 17.0959 30.5959L17.5916 31.0916C17.6616 31.1616 17.7448 31.2172 17.8363 31.2551C17.9278 31.293 18.0259 31.3125 18.125 31.3125V31.3125C18.2241 31.3125 18.3222 31.293 18.4137 31.2551C18.5052 31.2172 18.5884 31.1616 18.6584 31.0916L19.7791 29.9709Z" fill="white"/>
<path d="M21.685 32.6375L19.565 29.9875C19.5057 29.9134 19.4304 29.8535 19.3449 29.8124C19.2593 29.7713 19.1656 29.75 19.0706 29.75C18.9027 29.75 18.7417 29.8167 18.6229 29.9354C18.5042 30.0542 18.4375 30.2152 18.4375 30.3831C18.4375 30.5801 18.5045 30.7712 18.6275 30.925L20.7475 33.575C20.8068 33.6491 20.8821 33.709 20.9676 33.7501C21.0532 33.7912 21.1469 33.8125 21.2419 33.8125C21.4098 33.8125 21.5708 33.7458 21.6896 33.6271C21.8083 33.5083 21.875 33.3473 21.875 33.1794C21.875 32.9824 21.808 32.7913 21.685 32.6375V32.6375Z" fill="#FED433"/>
<path d="M22.3816 35.2566L23.8684 36.7434C23.93 36.805 24.0031 36.8538 24.0835 36.8871C24.1639 36.9204 24.2501 36.9375 24.3372 36.9375V36.9375C24.513 36.9374 24.6815 36.8676 24.8058 36.7433C24.9301 36.619 24.9999 36.4505 25 36.2747C25 36.1876 24.9829 36.1014 24.9496 36.021C24.9163 35.9406 24.8675 35.8675 24.8059 35.8059L23.3191 34.3191C23.2575 34.2575 23.1844 34.2087 23.104 34.1754C23.0236 34.1421 22.9374 34.125 22.8503 34.125V34.125C22.6745 34.1251 22.506 34.1949 22.3817 34.3192C22.2574 34.4435 22.1876 34.612 22.1875 34.7878V34.7878C22.1875 34.8749 22.2046 34.9611 22.2379 35.0415C22.2712 35.1219 22.32 35.195 22.3816 35.2566Z" fill="#FED433"/>
<path d="M19.0706 29.75C19.1656 29.75 19.2593 29.7713 19.3449 29.8124C19.4304 29.8535 19.5057 29.9134 19.565 29.9875L21.685 32.6375C21.7335 32.6998 21.7733 32.7683 21.8034 32.8413C21.7558 32.9356 21.6852 33.0164 21.5981 33.0763C21.511 33.1363 21.4103 33.1733 21.3052 33.1842C21.2001 33.195 21.0939 33.1792 20.9964 33.1383C20.899 33.0974 20.8134 33.0326 20.7475 32.95L18.6275 30.3C18.579 30.2377 18.5392 30.1692 18.5091 30.0962C18.5616 29.9924 18.6419 29.905 18.741 29.8439C18.8401 29.7828 18.9542 29.7503 19.0706 29.75Z" fill="#FEE88D"/>
<path d="M22.8503 34.125C22.9374 34.1249 23.0236 34.142 23.104 34.1753C23.1845 34.2086 23.2575 34.2575 23.3191 34.3191L24.8059 35.8059C24.8508 35.8522 24.8886 35.9049 24.9181 35.9622C24.8697 36.0534 24.8006 36.132 24.7163 36.1916C24.632 36.2512 24.5349 36.2901 24.4327 36.3053C24.3306 36.3205 24.2263 36.3116 24.1283 36.2791C24.0303 36.2466 23.9413 36.1916 23.8684 36.1184L22.3816 34.6316C22.3368 34.5852 22.299 34.5326 22.2694 34.4753C22.3254 34.3698 22.4091 34.2815 22.5114 34.2198C22.6137 34.1581 22.7308 34.1253 22.8503 34.125Z" fill="#FEE88D"/>
<path d="M32.5378 27.1584C32.1963 26.8169 31.733 26.625 31.25 26.625C30.767 26.625 30.3037 26.8169 29.9622 27.1584L28.9709 28.1497C28.6294 28.4912 28.4375 28.9545 28.4375 29.4375C28.4375 29.9205 28.6294 30.3838 28.9709 30.7253L29.2341 30.9884L29.07 31.1934C28.7265 30.864 28.2676 30.6824 27.7917 30.6876C27.3159 30.6927 26.861 30.8842 26.5247 31.2209L25.5334 32.2122C25.1919 32.5537 25 33.017 25 33.5C25 33.983 25.1919 34.4463 25.5334 34.7878L25.6519 34.9063L25 35.5581L24.3481 34.9063L24.4666 34.7878C24.8081 34.4463 25 33.983 25 33.5C25 33.017 24.8081 32.5537 24.4666 32.2122L23.4753 31.2209C23.139 30.8842 22.6841 30.6927 22.2083 30.6876C21.7324 30.6824 21.2735 30.864 20.93 31.1934L20.7659 30.9884L21.0291 30.7253C21.3706 30.3838 21.5625 29.9205 21.5625 29.4375C21.5625 28.9545 21.3706 28.4912 21.0291 28.1497L20.0378 27.1584C19.6963 26.8169 19.233 26.625 18.75 26.625C18.267 26.625 17.8037 26.8169 17.4622 27.1584L15.8459 28.7747C15.5044 29.1162 15.3125 29.5795 15.3125 30.0625C15.3125 30.5455 15.5044 31.0088 15.8459 31.3503L16.8372 32.3416C17.1735 32.6783 17.6284 32.8698 18.1042 32.8749C18.5801 32.8801 19.039 32.6985 19.3825 32.3691L19.5466 32.5741L19.2834 32.8372C18.9419 33.1787 18.75 33.642 18.75 34.125C18.75 34.608 18.9419 35.0713 19.2834 35.4128L20.2747 36.4041C20.6162 36.7456 21.0795 36.9375 21.5625 36.9375C22.0455 36.9375 22.5088 36.7456 22.8503 36.4041L22.9688 36.2856L23.5575 36.875C22.5818 37.2158 21.7582 37.8909 21.2328 38.7808C20.7073 39.6708 20.5138 40.718 20.6866 41.7369C20.8594 42.7558 21.3874 43.6807 22.1769 44.3476C22.9664 45.0145 23.9665 45.3804 25 45.3804C26.0335 45.3804 27.0336 45.0145 27.8231 44.3476C28.6127 43.6807 29.1406 42.7558 29.3134 41.7369C29.4862 40.718 29.2927 39.6708 28.7672 38.7808C28.2418 37.8909 27.4182 37.2158 26.4425 36.875L27.0313 36.2856L27.1497 36.4041C27.4912 36.7456 27.9545 36.9375 28.4375 36.9375C28.9205 36.9375 29.3838 36.7456 29.7253 36.4041L30.7166 35.4128C31.0581 35.0713 31.25 34.608 31.25 34.125C31.25 33.642 31.0581 33.1787 30.7166 32.8372L30.4534 32.5741L30.6175 32.3691C30.961 32.6985 31.4199 32.8801 31.8958 32.8749C32.3716 32.8698 32.8265 32.6783 33.1628 32.3416L34.1541 31.3503C34.4956 31.0088 34.6875 30.5455 34.6875 30.0625C34.6875 29.5795 34.4956 29.1162 34.1541 28.7747L32.5378 27.1584ZM30.3125 29.4375C30.3122 29.3794 30.3236 29.3219 30.3458 29.2682C30.368 29.2146 30.4007 29.1659 30.4419 29.125L30.9375 28.6294C31.022 28.5496 31.1338 28.5051 31.25 28.5051C31.3662 28.5051 31.478 28.5496 31.5625 28.6294L32.6831 29.75C32.7659 29.8329 32.8125 29.9453 32.8125 30.0625C32.8125 30.1797 32.7659 30.2921 32.6831 30.375L32.1875 30.8706C32.1257 30.928 32.0491 30.9672 31.9664 30.9838C31.8836 31.0003 31.7979 30.9936 31.7188 30.9644C31.8203 30.787 31.8741 30.5863 31.875 30.3819C31.8755 30.206 31.8268 30.0335 31.7344 29.8839C31.642 29.7342 31.5096 29.6134 31.3521 29.535C31.1947 29.4567 31.0185 29.4239 30.8434 29.4404C30.6683 29.4569 30.5013 29.522 30.3613 29.6284C30.3306 29.5694 30.3139 29.504 30.3125 29.4375ZM30.6788 30.1828C30.7203 30.131 30.7769 30.0934 30.8408 30.0751C30.9046 30.0568 30.9726 30.0588 31.0353 30.0808C31.0979 30.1028 31.1522 30.1437 31.1907 30.1978C31.2292 30.252 31.2499 30.3167 31.25 30.3831C31.2499 30.5092 31.207 30.6314 31.1284 30.73L29.0088 33.3797C28.9672 33.4315 28.9106 33.4691 28.8467 33.4874C28.7829 33.5057 28.7149 33.5037 28.6522 33.4817C28.5896 33.4597 28.5353 33.4188 28.4968 33.3647C28.4583 33.3105 28.4376 33.2458 28.4375 33.1794C28.4376 33.0534 28.4805 32.9312 28.5591 32.8328L30.6788 30.1828ZM29.375 34.125C29.3747 34.2421 29.3282 34.3544 29.2456 34.4375L28.75 34.9331C28.6652 35.0123 28.5535 35.0564 28.4375 35.0564C28.3215 35.0564 28.2098 35.0123 28.125 34.9331L28.1122 34.9203C28.137 34.7711 28.1259 34.6181 28.0797 34.4741C28.0335 34.33 27.9536 34.1991 27.8466 34.0921C27.7397 33.9851 27.6087 33.9052 27.4647 33.8591C27.3206 33.8129 27.1677 33.8017 27.0184 33.8266L27.0044 33.8125C26.9216 33.7296 26.875 33.6172 26.875 33.5C26.875 33.3828 26.9216 33.2704 27.0044 33.1875L27.5 32.6919C27.5616 32.634 27.638 32.5944 27.7208 32.5775C27.8036 32.5606 27.8894 32.5671 27.9688 32.5963C27.8671 32.7738 27.8132 32.9748 27.8125 33.1794C27.812 33.3552 27.8607 33.5277 27.9531 33.6773C28.0454 33.827 28.1778 33.9478 28.3352 34.0262C28.4926 34.1046 28.6688 34.1374 28.8438 34.121C29.0189 34.1045 29.1859 34.0395 29.3259 33.9331C29.3567 33.9925 29.3735 34.0581 29.375 34.125ZM25.9753 34.3459C25.751 34.1216 25.625 33.8173 25.625 33.5C25.625 33.1827 25.751 32.8784 25.9753 32.6541L26.9666 31.6628C27.1945 31.4453 27.4974 31.3239 27.8125 31.3239C28.1276 31.3239 28.4305 31.4453 28.6584 31.6628L28.6784 31.6828L28.3516 32.0916C28.1475 31.9757 27.9116 31.9286 27.6787 31.9571C27.4458 31.9857 27.2282 32.0883 27.0581 32.25L26.5625 32.7453C26.3845 32.9226 26.2752 33.1572 26.2538 33.4075C26.2324 33.6578 26.3003 33.9076 26.4456 34.1125L26.0938 34.4644L25.9753 34.3459ZM25.415 36.0269L26.9019 34.54C26.9676 34.4743 27.0567 34.4374 27.1497 34.4374C27.2426 34.4374 27.3318 34.4743 27.3975 34.54C27.4632 34.6057 27.5001 34.6949 27.5001 34.7878C27.5001 34.8808 27.4632 34.9699 27.3975 35.0356L25.9106 36.5225C25.8449 36.5882 25.7558 36.6251 25.6628 36.6251C25.5699 36.6251 25.4807 36.5882 25.415 36.5225C25.3493 36.4568 25.3124 36.3676 25.3124 36.2747C25.3124 36.1817 25.3493 36.0926 25.415 36.0269ZM24.6875 36.2747C24.6875 36.344 24.667 36.4118 24.6285 36.4694C24.59 36.5271 24.5353 36.572 24.4713 36.5985C24.4072 36.6251 24.3368 36.632 24.2688 36.6185C24.2008 36.6049 24.1384 36.5715 24.0894 36.5225L22.6025 35.0356C22.57 35.0031 22.5441 34.9644 22.5265 34.9219C22.5089 34.8794 22.4999 34.8338 22.4999 34.7878C22.4999 34.7418 22.5089 34.6962 22.5265 34.6537C22.5441 34.6112 22.57 34.5725 22.6025 34.54C22.635 34.5075 22.6737 34.4816 22.7162 34.464C22.7587 34.4464 22.8043 34.4374 22.8503 34.4374C22.8963 34.4374 22.9419 34.4464 22.9844 34.464C23.027 34.4816 23.0656 34.5075 23.0981 34.54L24.585 36.0269C24.6176 36.0594 24.6434 36.098 24.661 36.1405C24.6786 36.1831 24.6876 36.2287 24.6875 36.2747ZM21.875 34.7878C21.8763 34.8322 21.8806 34.8765 21.8878 34.9203L21.875 34.9331C21.7902 35.0123 21.6785 35.0564 21.5625 35.0564C21.4465 35.0564 21.3348 35.0123 21.25 34.9331L20.7544 34.4375C20.6718 34.3544 20.6254 34.2421 20.625 34.125C20.6265 34.0581 20.6433 33.9925 20.6741 33.9331C20.8141 34.0395 20.9811 34.1045 21.1562 34.121C21.3312 34.1374 21.5074 34.1046 21.6648 34.0262C21.8222 33.9478 21.9546 33.827 22.0469 33.6773C22.1393 33.5277 22.188 33.3552 22.1875 33.1794C22.1868 32.9746 22.1329 32.7734 22.0313 32.5956C22.1106 32.5663 22.1965 32.5597 22.2794 32.5767C22.3622 32.5937 22.4387 32.6336 22.5 32.6919L22.9956 33.1875C23.0784 33.2704 23.125 33.3828 23.125 33.5C23.125 33.6172 23.0784 33.7296 22.9956 33.8125L22.9828 33.8253C22.8445 33.8021 22.7027 33.8097 22.5677 33.8477C22.4327 33.8858 22.3077 33.9532 22.2018 34.0452C22.0959 34.1372 22.0117 34.2515 21.9552 34.3799C21.8987 34.5083 21.8713 34.6476 21.875 34.7878ZM18.8716 30.7297C18.793 30.6313 18.7501 30.5091 18.75 30.3831C18.7501 30.3167 18.7708 30.252 18.8093 30.1978C18.8478 30.1437 18.9021 30.1028 18.9647 30.0808C19.0274 30.0588 19.0954 30.0568 19.1592 30.0751C19.2231 30.0934 19.2797 30.131 19.3213 30.1828L21.4409 32.8325C21.5196 32.931 21.5625 33.0533 21.5625 33.1794C21.5624 33.2458 21.5417 33.3105 21.5032 33.3647C21.4648 33.4188 21.4104 33.4597 21.3478 33.4817C21.2851 33.5037 21.2171 33.5057 21.1533 33.4874C21.0894 33.4691 21.0328 33.4315 20.9913 33.3797L18.8716 30.7297ZM19.6388 29.6297C19.4987 29.5233 19.3317 29.4581 19.1566 29.4416C18.9815 29.4251 18.8053 29.4579 18.6479 29.5363C18.4904 29.6146 18.358 29.7355 18.2656 29.8851C18.1732 30.0348 18.1245 30.2073 18.125 30.3831C18.1259 30.5875 18.1797 30.7882 18.2813 30.9656C18.2021 30.9948 18.1164 31.0016 18.0336 30.985C17.9509 30.9685 17.8743 30.9293 17.8125 30.8719L17.3169 30.375C17.2341 30.2921 17.1875 30.1797 17.1875 30.0625C17.1875 29.9453 17.2341 29.8329 17.3169 29.75L18.4375 28.6294C18.5217 28.549 18.6336 28.5041 18.75 28.5041C18.8664 28.5041 18.9783 28.549 19.0625 28.6294L19.5581 29.125C19.6241 29.1892 19.6676 29.273 19.6822 29.364C19.6967 29.4549 19.6815 29.5481 19.6388 29.6297ZM21.3416 31.6628C21.5695 31.4453 21.8724 31.3239 22.1875 31.3239C22.5026 31.3239 22.8055 31.4453 23.0334 31.6628L24.0247 32.6541C24.249 32.8784 24.375 33.1827 24.375 33.5C24.375 33.8173 24.249 34.1216 24.0247 34.3459L23.9063 34.4644L23.5544 34.1125C23.6997 33.9076 23.7676 33.6578 23.7462 33.4075C23.7248 33.1572 23.6155 32.9226 23.4375 32.7453L22.9419 32.25C22.7716 32.0886 22.554 31.9861 22.3211 31.9576C22.0882 31.9292 21.8523 31.9762 21.6481 32.0919L21.3216 31.6831L21.3416 31.6628ZM18.9709 31.8997C18.743 32.1172 18.4401 32.2386 18.125 32.2386C17.8099 32.2386 17.507 32.1172 17.2791 31.8997L16.2878 30.9084C16.0635 30.6841 15.9375 30.3798 15.9375 30.0625C15.9375 29.7452 16.0635 29.4409 16.2878 29.2166L17.9041 27.6003C18.132 27.3828 18.4349 27.2614 18.75 27.2614C19.0651 27.2614 19.368 27.3828 19.5959 27.6003L20.5872 28.5916C20.8115 28.8159 20.9375 29.1202 20.9375 29.4375C20.9375 29.7548 20.8115 30.0591 20.5872 30.2834L20.3731 30.4975L20.0653 30.1125C20.2356 29.9094 20.3235 29.6497 20.3114 29.3849C20.2993 29.1201 20.1881 28.8695 20 28.6828L19.5044 28.1875C19.301 27.9938 19.0309 27.8857 18.75 27.8857C18.4691 27.8857 18.199 27.9938 17.9956 28.1875L16.875 29.3081C16.6749 29.5082 16.5625 29.7796 16.5625 30.0625C16.5625 30.3454 16.6749 30.6168 16.875 30.8169L17.3706 31.3125C17.5374 31.4806 17.7557 31.5878 17.9906 31.6169C18.2255 31.6461 18.4635 31.5956 18.6663 31.4734L18.9909 31.8797L18.9709 31.8997ZM22.4084 35.9622C22.1805 36.1797 21.8776 36.3011 21.5625 36.3011C21.2474 36.3011 20.9445 36.1797 20.7166 35.9622L19.7253 34.9709C19.501 34.7466 19.375 34.4423 19.375 34.125C19.375 33.8077 19.501 33.5034 19.7253 33.2791L19.9394 33.065L20.2472 33.45C20.0768 33.653 19.989 33.9127 20.0011 34.1774C20.0132 34.4422 20.1243 34.6927 20.3125 34.8794L20.8081 35.375C20.9854 35.5529 21.22 35.6622 21.4702 35.6836C21.7204 35.705 21.9701 35.6371 22.175 35.4919L22.5269 35.8438L22.4084 35.9622ZM28.75 41C28.75 41.7417 28.5301 42.4667 28.118 43.0834C27.706 43.7001 27.1203 44.1807 26.4351 44.4645C25.7498 44.7484 24.9958 44.8226 24.2684 44.6779C23.541 44.5333 22.8728 44.1761 22.3484 43.6517C21.8239 43.1272 21.4668 42.459 21.3221 41.7316C21.1774 41.0042 21.2516 40.2502 21.5355 39.5649C21.8193 38.8797 22.2999 38.294 22.9166 37.882C23.5333 37.4699 24.2583 37.25 25 37.25C25.9942 37.2511 26.9474 37.6465 27.6505 38.3495C28.3535 39.0526 28.7489 40.0058 28.75 41ZM30.2747 33.2791C30.499 33.5034 30.625 33.8077 30.625 34.125C30.625 34.4423 30.499 34.7466 30.2747 34.9709L29.2834 35.9622C29.0555 36.1797 28.7526 36.3011 28.4375 36.3011C28.1224 36.3011 27.8195 36.1797 27.5916 35.9622L27.4731 35.8438L27.825 35.4919C28.0299 35.6371 28.2796 35.705 28.5298 35.6836C28.78 35.6622 29.0146 35.5529 29.1919 35.375L29.6875 34.8794C29.8757 34.6927 29.9868 34.4422 29.9989 34.1774C30.011 33.9127 29.9232 33.653 29.7528 33.45L30.0606 33.065L30.2747 33.2791ZM33.7122 30.9084L32.7209 31.8997C32.493 32.1172 32.1901 32.2386 31.875 32.2386C31.5599 32.2386 31.257 32.1172 31.0291 31.8997L31.0091 31.8797L31.3341 31.4734C31.5368 31.5956 31.7747 31.6461 32.0095 31.6169C32.2444 31.5877 32.4627 31.4805 32.6294 31.3125L33.125 30.8169C33.3251 30.6168 33.4375 30.3454 33.4375 30.0625C33.4375 29.7796 33.3251 29.5082 33.125 29.3081L32.0044 28.1875C31.801 27.9938 31.5309 27.8857 31.25 27.8857C30.9691 27.8857 30.699 27.9938 30.4956 28.1875L30 28.6828C29.8119 28.8695 29.7007 29.1201 29.6886 29.3849C29.6765 29.6497 29.7644 29.9094 29.9347 30.1125L29.6269 30.4975L29.4128 30.2834C29.1885 30.0591 29.0625 29.7548 29.0625 29.4375C29.0625 29.1202 29.1885 28.8159 29.4128 28.5916L30.4041 27.6003C30.632 27.3828 30.9349 27.2614 31.25 27.2614C31.5651 27.2614 31.868 27.3828 32.0959 27.6003L33.7122 29.2166C33.9365 29.4409 34.0625 29.7452 34.0625 30.0625C34.0625 30.3798 33.9365 30.6841 33.7122 30.9084Z" fill="black"/>
<path d="M22.5 41C22.5007 40.3372 22.7644 39.7017 23.2331 39.2331C23.7017 38.7644 24.3372 38.5007 25 38.5V37.875C24.3819 37.875 23.7777 38.0583 23.2638 38.4017C22.7499 38.745 22.3494 39.2331 22.1129 39.8041C21.8764 40.3751 21.8145 41.0035 21.935 41.6097C22.0556 42.2158 22.3533 42.7727 22.7903 43.2097C23.2273 43.6467 23.7842 43.9444 24.3903 44.065C24.9965 44.1855 25.6249 44.1236 26.1959 43.8871C26.7669 43.6506 27.255 43.2501 27.5983 42.7362C27.9417 42.2223 28.125 41.6181 28.125 41H27.5C27.5 41.663 27.2366 42.2989 26.7678 42.7678C26.2989 43.2366 25.663 43.5 25 43.5C24.337 43.5 23.7011 43.2366 23.2322 42.7678C22.7634 42.2989 22.5 41.663 22.5 41Z" fill="black"/>
<path d="M24.6875 39.125V39.495C24.4792 39.5684 24.3035 39.7131 24.1917 39.9036C24.0798 40.0941 24.039 40.318 24.0764 40.5357C24.1139 40.7534 24.2271 40.9508 24.3962 41.093C24.5652 41.2352 24.7791 41.3129 25 41.3125C25.0618 41.3125 25.1222 41.3308 25.1736 41.3652C25.225 41.3995 25.2651 41.4483 25.2887 41.5054C25.3124 41.5625 25.3186 41.6253 25.3065 41.686C25.2944 41.7466 25.2647 41.8023 25.221 41.846C25.1773 41.8897 25.1216 41.9194 25.061 41.9315C25.0003 41.9436 24.9375 41.9374 24.8804 41.9137C24.8233 41.8901 24.7745 41.85 24.7402 41.7986C24.7058 41.7472 24.6875 41.6868 24.6875 41.625H24.0625C24.0633 41.8182 24.1238 42.0064 24.2357 42.164C24.3475 42.3215 24.5053 42.4406 24.6875 42.505V42.875H25.3125V42.505C25.5208 42.4316 25.6965 42.2869 25.8083 42.0964C25.9202 41.9059 25.961 41.682 25.9236 41.4643C25.8861 41.2466 25.7729 41.0492 25.6038 40.907C25.4348 40.7648 25.2209 40.6871 25 40.6875C24.9382 40.6875 24.8778 40.6692 24.8264 40.6348C24.775 40.6005 24.7349 40.5517 24.7113 40.4946C24.6876 40.4375 24.6814 40.3747 24.6935 40.314C24.7056 40.2534 24.7353 40.1977 24.779 40.154C24.8227 40.1103 24.8784 40.0806 24.939 40.0685C24.9997 40.0564 25.0625 40.0626 25.1196 40.0863C25.1767 40.1099 25.2255 40.15 25.2598 40.2014C25.2942 40.2528 25.3125 40.3132 25.3125 40.375H25.9375C25.9367 40.1818 25.8762 39.9936 25.7643 39.836C25.6525 39.6785 25.4947 39.5594 25.3125 39.495V39.125H24.6875Z" fill="black"/>
<path d="M19.3125 10H16.0625C15.2005 10 14.3739 9.65759 13.7644 9.0481C13.1549 8.4386 12.8125 7.61195 12.8125 6.75V3.5H22.5625V6.75C22.5625 7.61195 22.2201 8.4386 21.6106 9.0481C21.0011 9.65759 20.1745 10 19.3125 10Z" fill="#91CC04"/>
<path d="M30.6875 10H33.9375C34.7995 10 35.6261 9.65759 36.2356 9.0481C36.8451 8.4386 37.1875 7.61195 37.1875 6.75V3.5H27.4375V6.75C27.4375 7.61195 27.7799 8.4386 28.3894 9.0481C28.9989 9.65759 29.8255 10 30.6875 10Z" fill="#91CC04"/>
<path d="M38 6.75V3.5C38 3.28451 37.9144 3.07785 37.762 2.92548C37.6097 2.7731 37.403 2.6875 37.1875 2.6875H27.4375C27.222 2.6875 27.0153 2.7731 26.863 2.92548C26.7106 3.07785 26.625 3.28451 26.625 3.5V5.125H23.375V3.5C23.375 3.28451 23.2894 3.07785 23.137 2.92548C22.9847 2.7731 22.778 2.6875 22.5625 2.6875H12.8125C12.597 2.6875 12.3903 2.7731 12.238 2.92548C12.0856 3.07785 12 3.28451 12 3.5V6.75C12.0012 7.82707 12.4296 8.85968 13.1912 9.62129C13.9528 10.3829 14.9854 10.8113 16.0625 10.8125H19.3125C20.3896 10.8113 21.4222 10.3829 22.1838 9.62129C22.9454 8.85968 23.3738 7.82707 23.375 6.75H26.625C26.6262 7.82707 27.0546 8.85968 27.8162 9.62129C28.5778 10.3829 29.6104 10.8113 30.6875 10.8125H33.9375C35.0146 10.8113 36.0472 10.3829 36.8088 9.62129C37.5704 8.85968 37.9988 7.82707 38 6.75V6.75ZM21.75 6.75C21.7493 7.39624 21.4922 8.01581 21.0353 8.47277C20.5783 8.92973 19.9587 9.18677 19.3125 9.1875H16.0625C15.4163 9.18677 14.7967 8.92973 14.3397 8.47277C13.8828 8.01581 13.6257 7.39624 13.625 6.75V4.3125H21.75V6.75ZM28.25 6.75V4.3125H36.375V6.75C36.3743 7.39624 36.1172 8.01581 35.6603 8.47277C35.2033 8.92973 34.5837 9.18677 33.9375 9.1875H30.6875C30.0413 9.18677 29.4217 8.92973 28.9647 8.47277C28.5078 8.01581 28.2507 7.39624 28.25 6.75V6.75Z" fill="black"/>
</svg>
