<svg width="50" height="50" viewBox="0 0 50 50" fill="none" xmlns="http://www.w3.org/2000/svg">
<path d="M0 50C0 22.3843 11.2037 0 25 0C38.7963 0 50 22.3843 50 50H0Z" fill="#9B8579"/>
<path d="M12.5 8.33332C13.6506 8.33332 14.5833 7.40058 14.5833 6.24999C14.5833 5.0994 13.6506 4.16666 12.5 4.16666C11.3494 4.16666 10.4167 5.0994 10.4167 6.24999C10.4167 7.40058 11.3494 8.33332 12.5 8.33332Z" fill="#9B8579"/>
<path d="M37.5 8.33332C38.6506 8.33332 39.5833 7.40058 39.5833 6.24999C39.5833 5.0994 38.6506 4.16666 37.5 4.16666C36.3494 4.16666 35.4167 5.0994 35.4167 6.24999C35.4167 7.40058 36.3494 8.33332 37.5 8.33332Z" fill="#9B8579"/>
<path d="M17.7083 10.4167C18.2836 10.4167 18.75 9.48393 18.75 8.33333C18.75 7.18274 18.2836 6.25 17.7083 6.25C17.133 6.25 16.6667 7.18274 16.6667 8.33333C16.6667 9.48393 17.133 10.4167 17.7083 10.4167Z" fill="black"/>
<path d="M32.2917 10.4167C32.867 10.4167 33.3333 9.48393 33.3333 8.33333C33.3333 7.18274 32.867 6.25 32.2917 6.25C31.7164 6.25 31.25 7.18274 31.25 8.33333C31.25 9.48393 31.7164 10.4167 32.2917 10.4167Z" fill="black"/>
<path d="M25.0694 8.61111C22.963 8.61111 21.0185 9.93056 19.5139 11.875C18.6806 12.9398 18.6806 14.4213 19.5139 15.4861C21.0417 17.4306 22.963 18.75 25.0694 18.75C27.1759 18.75 29.1204 17.4306 30.625 15.4861C31.4583 14.4213 31.4583 12.9398 30.625 11.875C29.1204 9.93056 27.1759 8.61111 25.0694 8.61111Z" fill="black"/>
<path d="M27.0833 22.9167V21.875L25 20.8333L22.9167 21.875V22.9167C22.9167 23.4954 23.3796 23.9583 23.9583 23.9583C24.537 23.9583 25 23.4954 25 22.9167C25 23.4954 25.463 23.9583 26.0417 23.9583C26.6204 23.9583 27.0833 23.4954 27.0833 22.9167Z" fill="white"/>
<g opacity="0.5">
<path opacity="0.5" d="M25 18.75V20.8333" stroke="black" stroke-miterlimit="10"/>
<path opacity="0.5" d="M20.8333 22.9167L25 20.8333" stroke="black" stroke-miterlimit="10"/>
<path opacity="0.5" d="M29.1667 22.9167L25 20.8333" stroke="black" stroke-miterlimit="10"/>
</g>
<path opacity="0.25" d="M16.6667 12.5H4.16666" stroke="black" stroke-miterlimit="10"/>
<path opacity="0.25" d="M16.6667 12.5L4.16666 14.5833" stroke="black" stroke-miterlimit="10"/>
<path opacity="0.25" d="M45.8333 12.5H33.3333" stroke="black" stroke-miterlimit="10"/>
<path opacity="0.25" d="M45.8333 14.5833L33.3333 12.5" stroke="black" stroke-miterlimit="10"/>
<path opacity="0.1" d="M43.912 17.2685C39.3287 6.68981 32.5463 0 25 0C17.4537 0 10.6713 6.68981 6.08796 17.2685C2.89352 24.6759 8.125 33.1019 16.1806 33.3333C16.3426 33.3333 16.5046 33.3333 16.6667 33.3333C17.5 33.3333 18.3333 33.2639 19.1435 33.1481C23.0093 32.5694 26.9676 32.5694 30.8565 33.1481C31.6667 33.2639 32.5 33.3333 33.3333 33.3333C33.4954 33.3333 33.6574 33.3333 33.8194 33.3333C41.875 33.1019 47.1065 24.6759 43.912 17.2685ZM25 27.0833C20.3935 27.0833 14.5833 26.5972 14.5833 20.8333C14.5833 15.0694 20.3935 8.33333 25 8.33333C29.6065 8.33333 35.4167 15.0694 35.4167 20.8333C35.4167 26.5972 29.6065 27.0833 25 27.0833Z" fill="black"/>
</svg>
