<svg width="100" height="98" viewBox="0 0 100 98" fill="none" xmlns="http://www.w3.org/2000/svg">
<g clip-path="url(#clip0_248_225)">
<rect width="100" height="98" fill="white"/>
<path fill-rule="evenodd" clip-rule="evenodd" d="M53.4 32.5L72.2 4.6C74 1.7 77.1 0 80.5 0C85.8 0 90.1 4.3 90.1 9.6V59.3666C87.274 57.9901 84.0996 57.2178 80.7447 57.2178C79.1497 57.2178 77.5954 57.3923 76.1 57.7234V19.6C76.1 18.9 75.4 18.6 74.9 19L56.4 35.1C54.6 36.7 52.1 34.4 53.4 32.5ZM68.8561 63.2886L74.8 70.4C75.2 70.9 76.1 70.6 76.1 69.9V59.7776C77.5881 59.4118 79.1438 59.2178 80.7447 59.2178C84.1371 59.2178 87.326 60.0889 90.1 61.6197V80.4C90.1 85.7 85.8 90 80.5 90H78.5C75.7 90 73 88.8 71.2 86.6L61.6556 75.1808C62.5141 70.368 65.1482 66.1701 68.8561 63.2886ZM67.5727 61.7531L18.8 3.4C17 1.2 14.4 0 11.5 0H9.5C4.3 0 0 4.3 0 9.6V80.4C0 85.7 4.3 90 9.6 90C12.9 90 16 88.3 17.8 85.4L36.6 57.5C37.9 55.6 35.4 53.3 33.6 54.9L15.1 70.9C14.6 71.3 13.9 71 13.9 70.3V20.1C13.9 19.4 14.8 19.1 15.2 19.6L60.033 73.2395C61.2269 68.6212 63.9246 64.6079 67.5727 61.7531Z" fill="black"/>
<path d="M80.7447 98.0002C91.4542 98.0002 100.136 89.3185 100.136 78.609C100.136 67.8995 91.4542 59.2178 80.7447 59.2178C70.0353 59.2178 61.3535 67.8995 61.3535 78.609C61.3535 89.3185 70.0353 98.0002 80.7447 98.0002Z" fill="#627EEA"/>
<path d="M81.3486 64.063V74.8135L90.4346 78.8741L81.3486 64.063Z" fill="white" fill-opacity="0.602"/>
<path d="M81.3487 64.063L72.2627 78.8741L81.3487 74.8135V64.063Z" fill="white"/>
<path d="M81.3486 85.8395V93.1443L90.4399 80.5649L81.3486 85.8395Z" fill="white" fill-opacity="0.602"/>
<path d="M81.3487 93.1443V85.8395L72.2627 80.5649L81.3487 93.1443Z" fill="white"/>
<path d="M81.3486 84.1486L90.4346 78.8741L81.3486 74.8135V84.1486Z" fill="white" fill-opacity="0.2"/>
<path d="M72.2627 78.8741L81.3487 84.1486V74.8135L72.2627 78.8741Z" fill="white" fill-opacity="0.602"/>
</g>
<defs>
<clipPath id="clip0_248_225">
<rect width="100" height="98" fill="white"/>
</clipPath>
</defs>
</svg>
