<svg width="23" height="23" viewBox="0 0 23 23" fill="none" xmlns="http://www.w3.org/2000/svg">
<path d="M18.4306 1.17556L13.6315 8.30556C13.2997 8.79111 13.9378 9.37889 14.3973 8.97L19.1199 4.85556C19.2475 4.75333 19.4262 4.83 19.4262 5.00889V17.8633C19.4262 18.0422 19.1964 18.1189 19.0943 17.9911L4.79911 0.868889C4.33962 0.306667 3.67592 0 2.93563 0H2.42508C1.09767 0 0 1.09889 0 2.45333V20.5467C0 21.9011 1.09767 23 2.45061 23C3.29301 23 4.08435 22.5656 4.54384 21.8244L9.34295 14.6944C9.67481 14.2089 9.03663 13.6211 8.57714 14.03L3.85461 18.1189C3.72697 18.2211 3.54828 18.1444 3.54828 17.9656V5.13667C3.54828 4.95778 3.77802 4.88111 3.88013 5.00889L18.1754 22.1311C18.6348 22.6933 19.3241 23 20.0388 23H20.5494C21.9023 23 23 21.9011 23 20.5467V2.45333C23 1.09889 21.9023 0 20.5494 0C19.6815 0 18.8901 0.434444 18.4306 1.17556Z" fill="black"/>
</svg>
