<svg width="121" height="32" fill="none" xmlns="http://www.w3.org/2000/svg">
  <g clip-path="url(#a)">
    <path d="M42.379 22.578V9.333c0-.889.541-1.422 1.399-1.422h5.37c3.566 0 5.507 1.467 5.507 4.178 0 1.733-.993 2.933-2.889 3.467 2.438.533 3.52 2.044 3.52 3.955 0 3.022-1.94 4.489-6.227 4.489h-5.326c-.813 0-1.354-.578-1.354-1.422Zm6.544-7.645c1.94 0 3.024-.977 3.024-2.533 0-1.6-.948-2.4-3.069-2.4h-3.926v4.933h3.971Zm.09 7.023c2.618 0 3.611-.756 3.611-2.623 0-1.688-1.083-2.533-3.52-2.533h-4.152v5.156h4.061ZM62.373 24.311c-3.205 0-4.694-2.133-4.694-5.111v-6.089c0-.889.451-1.2 1.083-1.2h.27c.678 0 1.129.267 1.129 1.2v5.778c0 2.044 1.083 3.289 2.889 3.289 1.534 0 2.707-.845 3.34-2.134v-6.933c0-.889.45-1.2 1.082-1.2h.271c.677 0 1.129.267 1.129 1.2v10.711c0 .09-.407.267-.903.267-.767 0-1.535-.356-1.58-1.911-.812 1.244-2.166 2.133-4.016 2.133ZM77.537 11.733c1.264 0 1.986.578 1.986 1.6 0 .934-.722 1.334-.768 1.29-.36-.312-.857-.534-1.534-.534-1.986 0-2.753 1.911-2.753 4.667v4.222c0 .889-.497 1.155-1.129 1.155h-.27c-.677 0-1.129-.266-1.129-1.155v-10.8c0-.089.407-.267.903-.267.767 0 1.535.4 1.58 2.09.541-1.468 1.534-2.268 3.114-2.268ZM86.924 11.733c1.264 0 1.986.578 1.986 1.6 0 .934-.722 1.334-.767 1.29-.36-.312-.857-.534-1.534-.534-1.986 0-2.753 1.911-2.753 4.667v4.222c0 .889-.497 1.155-1.129 1.155h-.27c-.678 0-1.129-.266-1.129-1.155v-10.8c0-.089.406-.267.903-.267.767 0 1.534.4 1.58 2.09.541-1.468 1.579-2.268 3.113-2.268ZM90.04 18c0-3.644 2.617-6.267 6.408-6.267 3.701 0 6.364 2.623 6.364 6.311 0 3.645-2.618 6.267-6.364 6.267-3.836 0-6.409-2.622-6.409-6.31Zm10.425.044c0-2.488-1.715-4.31-4.062-4.31-2.347 0-4.062 1.777-4.062 4.266s1.76 4.311 4.062 4.311c2.301 0 4.062-1.822 4.062-4.267ZM107.099 23.333l-3.024-10.71c-.045-.134.767-.712 1.489-.712.542 0 1.129.311 1.309 1.334l1.896 8.4 2.347-7.245c.18-.578.586-.889 1.534-.889.903 0 1.354.267 1.535.889l2.256 7.2 1.851-8.356c.18-1.022.767-1.333 1.309-1.333.722 0 1.444.578 1.444.711l-3.024 10.711c-.135.578-.587.8-1.535.8-1.038 0-1.308-.177-1.534-.889L112.605 16l-2.437 7.244c-.226.667-.542.89-1.535.89-.902 0-1.354-.178-1.534-.8Z" fill="#fff"/>
    <ellipse cx="16.154" cy="16.014" rx="15.911" ry="15.986" fill="#fff"/>
    <path d="M16.248 0C7.266 0 0 7.156 0 16c0 6.444 3.881 12 9.478 14.533-1.85-2.977-5.19-9.155-4.92-14.666C4.83 9.6 9.523 6.4 13.765 5.51c4.333-.889 9.93-.444 11.329 3.778 1.624 4.933-6.41 7.867-6.77 8-.406.133-4.152 1.511-6.319.533a2.801 2.801 0 0 1-1.444-1.51c-.361-.934-.135-1.956.587-2.8 1.76-2.09 6.273-3.023 10.967-2.268-.316.667-1.083 1.334-1.986 1.912-3.836-.267-6.544.755-7.357 1.733-.316.4-.225.622-.225.711.045.089.09.222.316.311 1.083.489 3.61-.178 4.694-.578.09-.044 6.453-2.4 5.46-5.377-1.037-3.112-6.047-2.978-8.845-2.4-1.67.355-7.222 2-7.538 8.4-.18 4.933 3.792 12.088 5.958 15.644 1.173.267 2.392.4 3.656.4 8.981 0 16.247-7.156 16.247-16 0-8.844-7.266-16-16.247-16Zm11.147 20.133c-2.662 4-6.86 5.067-10.38 5.067a20.2 20.2 0 0 1-5.326-.711c-.586-.133-.902-.711-.767-1.289s.722-.889 1.309-.756c8.26 2.09 11.915-1.288 13.404-3.466.587-.89.813-1.911.587-2.8-.226-.845-.722-1.511-1.535-2 .497-.534.858-1.156 1.129-1.778 1.534.933 2.211 2.222 2.482 3.333.316 1.467 0 3.067-.903 4.4Z" fill="#594A42"/>
  </g>
  <defs>
    <clipPath id="a">
      <path fill="#fff" d="M0 0h121v32H0z"/>
    </clipPath>
  </defs>
</svg>