<svg width="100%" height="100%" viewBox="0 0 1280 872" preserveAspectRatio="none" fill="none" xmlns="http://www.w3.org/2000/svg">
    <g clip-path="url(#clip0_705:2666)">
        <rect width="1280" height="872" fill="#F8F9FF" />
        <path opacity="0.2" d="M1054.72 80.282C1060.35 76.6431 1067.95 74.8012 1074.94 76.5388C1081.94 78.2433 1088.34 83.5274 1090.01 89.8827C1091.65 96.2189 1088.54 103.607 1085.95 109.845C1083.35 116.116 1081.29 121.203 1077.57 126.653C1073.87 132.07 1068.48 137.883 1063.92 136.924C1059.33 135.998 1055.54 128.334 1050.21 123.182C1044.85 118.012 1037.99 115.373 1036.33 111.058C1034.67 106.743 1038.25 100.771 1041.85 95.0733C1045.47 89.343 1049.08 83.921 1054.72 80.282Z" fill="#47C880" />
        <path opacity="0.2" d="M216.133 115.908C222.512 119.778 226.246 127.752 228.112 135.852C229.968 144.007 229.901 152.277 227.853 159.843C225.75 167.398 221.666 174.25 216.645 180.905C211.68 187.571 205.844 193.998 198.851 195.521C191.858 197.045 183.665 193.6 176.675 190.178C169.629 186.743 163.732 183.32 158.872 178.791C154.068 174.274 150.356 168.662 147.049 162.216C143.742 155.769 140.829 148.543 140.232 140.421C139.58 132.288 141.288 123.328 146.896 118.809C152.558 114.303 162.121 114.238 170.307 113.885C178.425 113.575 185.166 112.976 192.966 112.542C200.809 112.175 209.766 111.983 216.133 115.908Z" fill="#47C880" />
        <path opacity="0.2" d="M-4.38925 153.198C1.69079 129.227 16.2572 103.767 38.3765 92.826C60.4889 81.7245 89.8186 84.8347 103.856 103.919C117.901 123.164 116.318 158.075 124.957 179.163C133.595 200.251 152.455 207.515 163.752 222.844C175.204 238.006 179.268 261.546 173.705 286.302C167.975 310.903 152.463 336.888 130.374 344.762C108.44 352.469 79.9303 342.065 58.0532 328.314C36.1761 314.563 20.7642 297.312 11.276 279.002C1.94873 260.686 -1.448 241.473 -4.43687 220.468C-7.57992 199.63 -10.3083 177.163 -4.38925 153.198Z" fill="#FFC35C" />
        <path opacity="0.2" d="M1027 167.018C1043.38 172.894 1060.39 187.022 1061.09 208.652C1061.78 230.141 1046.14 258.992 1028.92 261.373C1011.7 263.754 992.879 239.524 984.317 219.151C975.754 198.779 977.52 182.331 986.164 172.89C994.882 163.516 1010.62 161.141 1027 167.018Z" fill="#FFC35C" />
        <g opacity="0.1">
            <path fill-rule="evenodd" clip-rule="evenodd" d="M1094.52 320.234C1097.77 318.304 1094.77 313.258 1091.52 315.191C1088.28 317.123 1091.27 322.167 1094.52 320.234Z" fill="#000741" />
            <path fill-rule="evenodd" clip-rule="evenodd" d="M1085.22 208.356C1088.47 206.427 1085.47 201.38 1082.22 203.314C1078.98 205.245 1081.97 210.29 1085.22 208.356Z" fill="#000741" />
            <path fill-rule="evenodd" clip-rule="evenodd" d="M1071.4 238.061C1074.64 236.13 1071.65 231.085 1068.4 233.019C1065.15 234.95 1068.15 239.995 1071.4 238.061Z" fill="#000741" />
            <path fill-rule="evenodd" clip-rule="evenodd" d="M1101.39 237.942C1104.64 236.012 1101.64 230.966 1098.4 232.899C1095.15 234.831 1098.15 239.877 1101.39 237.942Z" fill="#000741" />
            <path fill-rule="evenodd" clip-rule="evenodd" d="M1091.12 278.423C1094.37 276.491 1091.37 271.447 1088.12 273.381C1084.88 275.31 1087.87 280.356 1091.12 278.423Z" fill="#000741" />
            <path fill-rule="evenodd" clip-rule="evenodd" d="M1080.72 169.511C1083.97 167.58 1080.97 162.535 1077.72 164.469C1074.48 166.4 1077.47 171.445 1080.72 169.511Z" fill="#000741" />
            <path fill-rule="evenodd" clip-rule="evenodd" d="M1149.46 241.721C1152.71 239.792 1149.71 234.745 1146.46 236.679C1143.22 238.61 1146.22 243.657 1149.46 241.721Z" fill="#000741" />
            <path fill-rule="evenodd" clip-rule="evenodd" d="M1141.11 218.056C1144.35 216.126 1141.36 211.08 1138.11 213.013C1134.86 214.945 1137.86 219.991 1141.11 218.056Z" fill="#000741" />
            <path fill-rule="evenodd" clip-rule="evenodd" d="M1198.48 225.44C1201.73 223.51 1198.73 218.464 1195.48 220.398C1192.24 222.329 1195.23 227.373 1198.48 225.44Z" fill="#000741" />
            <path fill-rule="evenodd" clip-rule="evenodd" d="M1193.89 268.263C1197.14 266.331 1194.14 261.285 1190.89 263.221C1187.65 265.15 1190.64 270.196 1193.89 268.263Z" fill="#000741" />
            <path fill-rule="evenodd" clip-rule="evenodd" d="M1176.96 225.362C1180.2 223.431 1177.21 218.386 1173.96 220.32C1170.71 222.249 1173.71 227.296 1176.96 225.362Z" fill="#000741" />
            <path fill-rule="evenodd" clip-rule="evenodd" d="M1213.7 210.108C1216.94 208.176 1213.95 203.132 1210.7 205.066C1207.45 206.997 1210.45 212.041 1213.7 210.108Z" fill="#000741" />
            <path fill-rule="evenodd" clip-rule="evenodd" d="M1259.35 257.95C1262.59 256.018 1259.6 250.972 1256.35 252.908C1253.1 254.837 1256.1 259.883 1259.35 257.95Z" fill="#000741" />
            <path fill-rule="evenodd" clip-rule="evenodd" d="M1247.19 235.114C1250.44 233.182 1247.44 228.138 1244.19 230.071C1240.95 232.003 1243.94 237.047 1247.19 235.114Z" fill="#000741" />
            <path fill-rule="evenodd" clip-rule="evenodd" d="M1218.42 256.534C1221.66 254.602 1218.67 249.558 1215.42 251.491C1212.17 253.423 1215.17 258.467 1218.42 256.534Z" fill="#000741" />
            <path fill-rule="evenodd" clip-rule="evenodd" d="M1228.24 224.916C1231.48 222.985 1228.49 217.94 1225.24 219.874C1221.99 221.803 1224.99 226.85 1228.24 224.916Z" fill="#000741" />
            <path fill-rule="evenodd" clip-rule="evenodd" d="M1179.19 248.372C1182.44 246.441 1179.44 241.396 1176.19 243.33C1172.95 245.259 1175.94 250.306 1179.19 248.372Z" fill="#000741" />
            <path fill-rule="evenodd" clip-rule="evenodd" d="M1165.86 201.897C1169.1 199.966 1166.11 194.922 1162.86 196.855C1159.61 198.785 1162.61 203.831 1165.86 201.897Z" fill="#000741" />
            <path fill-rule="evenodd" clip-rule="evenodd" d="M1206.04 177.987C1209.28 176.056 1206.29 171.011 1203.04 172.945C1199.79 174.874 1202.79 179.921 1206.04 177.987Z" fill="#000741" />
            <path fill-rule="evenodd" clip-rule="evenodd" d="M1250.2 163.164C1253.44 161.235 1250.45 156.188 1247.2 158.122C1243.95 160.053 1246.95 165.1 1250.2 163.164Z" fill="#000741" />
            <path fill-rule="evenodd" clip-rule="evenodd" d="M1240.75 207.445C1244 205.516 1241 200.469 1237.75 202.403C1234.51 204.334 1237.5 209.381 1240.75 207.445Z" fill="#000741" />
            <path fill-rule="evenodd" clip-rule="evenodd" d="M1190.1 208.949C1193.35 207.02 1190.35 201.973 1187.1 203.907C1183.86 205.838 1186.85 210.883 1190.1 208.949Z" fill="#000741" />
            <path fill-rule="evenodd" clip-rule="evenodd" d="M1117.6 183.363C1120.85 181.431 1117.85 176.387 1114.6 178.32C1111.36 180.252 1114.35 185.296 1117.6 183.363Z" fill="#000741" />
            <path fill-rule="evenodd" clip-rule="evenodd" d="M1166.87 155.476C1170.11 153.545 1167.12 148.5 1163.87 150.434C1160.63 152.363 1163.62 157.41 1166.87 155.476Z" fill="#000741" />
            <path fill-rule="evenodd" clip-rule="evenodd" d="M1237.21 184.659C1240.46 182.728 1237.46 177.683 1234.22 179.617C1230.97 181.546 1233.97 186.593 1237.21 184.659Z" fill="#000741" />
            <path fill-rule="evenodd" clip-rule="evenodd" d="M1164.25 179.946C1167.49 178.015 1164.5 172.968 1161.25 174.904C1158 176.833 1161 181.88 1164.25 179.946Z" fill="#000741" />
            <path fill-rule="evenodd" clip-rule="evenodd" d="M1144.26 163.202C1147.51 161.27 1144.51 156.226 1141.26 158.159C1138.02 160.089 1141.01 165.135 1144.26 163.202Z" fill="#000741" />
            <path fill-rule="evenodd" clip-rule="evenodd" d="M1145 183.689C1148.24 181.76 1145.25 176.713 1142 178.647C1138.75 180.578 1141.75 185.623 1145 183.689Z" fill="#000741" />
            <path fill-rule="evenodd" clip-rule="evenodd" d="M1131.76 245.651C1135 243.72 1132.01 238.673 1128.76 240.609C1125.51 242.538 1128.51 247.585 1131.76 245.651Z" fill="#000741" />
            <path fill-rule="evenodd" clip-rule="evenodd" d="M1148.77 315.156C1152.02 313.227 1149.02 308.18 1145.77 310.114C1142.53 312.045 1145.53 317.09 1148.77 315.156Z" fill="#000741" />
            <path fill-rule="evenodd" clip-rule="evenodd" d="M1126.93 288.065C1130.17 286.134 1127.18 281.09 1123.93 283.023C1120.68 284.955 1123.68 289.999 1126.93 288.065Z" fill="#000741" />
            <path fill-rule="evenodd" clip-rule="evenodd" d="M1152.28 280.139C1155.52 278.209 1152.53 273.163 1149.28 275.096C1146.03 277.028 1149.03 282.072 1152.28 280.139Z" fill="#000741" />
            <path fill-rule="evenodd" clip-rule="evenodd" d="M1195.05 299.076C1198.29 297.145 1195.3 292.1 1192.05 294.034C1188.8 295.965 1191.8 301.01 1195.05 299.076Z" fill="#000741" />
            <path fill-rule="evenodd" clip-rule="evenodd" d="M1166.68 265.841C1169.92 263.912 1166.93 258.865 1163.68 260.799C1160.43 262.73 1163.43 267.775 1166.68 265.841Z" fill="#000741" />
            <path fill-rule="evenodd" clip-rule="evenodd" d="M1124.89 267.8C1128.13 265.868 1125.14 260.824 1121.89 262.757C1118.64 264.687 1121.64 269.733 1124.89 267.8Z" fill="#000741" />
            <path fill-rule="evenodd" clip-rule="evenodd" d="M1119.41 208.059C1122.65 206.13 1119.66 201.083 1116.41 203.017C1113.16 204.948 1116.16 209.992 1119.41 208.059Z" fill="#000741" />
            <path fill-rule="evenodd" clip-rule="evenodd" d="M1116.85 158.036C1120.09 156.107 1117.1 151.06 1113.85 152.994C1110.6 154.925 1113.6 159.972 1116.85 158.036Z" fill="#000741" />
        </g>
        <rect y="385.537" width="1280" height="509.743" fill="white" />
        <path d="M0 232L42.6667 240.53C85.3333 249.06 170.667 266.119 256 266.119C341.333 266.119 426.667 249.06 512 246.234C597.333 243.195 682.667 254.924 768 271.824C853.333 289.043 938.667 311.434 1024 308.768C1109.33 306.103 1194.67 277.315 1237.33 263.294L1280 249.06V385.537H1237.33C1194.67 385.537 1109.33 385.537 1024 385.537C938.667 385.537 853.333 385.537 768 385.537C682.667 385.537 597.333 385.537 512 385.537C426.667 385.537 341.333 385.537 256 385.537C170.667 385.537 85.3333 385.537 42.6667 385.537H0V232Z" fill="white" />
        <path opacity="0.2" fill-rule="evenodd" clip-rule="evenodd" d="M488.063 106.654L480.818 103.119C478.348 101.8 475.791 101.511 473.617 102.304C471.543 103.062 469.951 104.717 469.014 107.092L463.983 119.836C462.422 123.793 459.542 126.736 455.874 128.118C452.102 129.542 447.816 129.205 443.808 127.172L435.979 123.203C433.49 121.94 430.935 121.724 428.784 122.594C426.698 123.438 425.078 125.281 424.226 127.784L422.655 132.392C421.141 136.83 418.091 140.069 414.064 141.513C409.875 143.017 405.198 142.395 400.896 139.766C398.308 138.184 395.592 137.742 393.25 138.519C391.081 139.241 389.423 140.919 388.454 143.374L383.717 155.377C382.154 159.335 379.274 162.278 375.607 163.661C371.834 165.084 367.549 164.747 363.54 162.715L354.855 158.309C352.47 157.1 350.004 156.85 347.91 157.606C345.916 158.324 344.355 159.883 343.398 162.114L343.321 162.281L339.313 170.275L333.735 167.457L337.703 159.541C339.338 155.793 342.199 153.022 345.767 151.736C349.495 150.392 353.716 150.752 357.652 152.75L366.339 157.154C368.763 158.384 371.263 158.621 373.38 157.823C375.42 157.054 376.988 155.407 377.914 153.062L382.651 141.06C384.292 136.903 387.347 133.899 391.257 132.599C395.37 131.234 399.941 131.891 404.128 134.449C406.783 136.071 409.554 136.495 411.932 135.641C414.147 134.846 415.858 132.968 416.751 130.352L418.32 125.745C419.764 121.512 422.64 118.339 426.421 116.81C430.264 115.255 434.654 115.552 438.778 117.644L446.606 121.613C449.03 122.842 451.532 123.081 453.647 122.282C455.687 121.512 457.255 119.866 458.18 117.52L463.21 104.777C464.794 100.767 467.721 97.8063 471.452 96.4441C475.296 95.0408 479.637 95.4491 483.68 97.5925L490.773 101.05L488.063 106.654Z" fill="#FFC35C" />
    </g>
    <defs>
        <clipPath id="clip0_705:2666">
            <rect width="1280" height="872" fill="white" />
        </clipPath>
    </defs>
</svg>