<svg width="1288" height="386" viewBox="0 0 1288 386" fill="none" xmlns="http://www.w3.org/2000/svg">
    <path d="M1288 0H8V386H1288V0Z" fill="#F8F9FF" />
    <path opacity="0.2" d="M1062.73 80.282C1068.36 76.6431 1075.96 74.8012 1082.95 76.5388C1089.95 78.2433 1096.35 83.5274 1098.02 89.8827C1099.66 96.2189 1096.55 103.607 1093.96 109.845C1091.36 116.116 1089.3 121.203 1085.58 126.653C1081.88 132.07 1076.49 137.883 1071.93 136.924C1067.34 135.998 1063.55 128.334 1058.22 123.182C1052.86 118.012 1046 115.373 1044.34 111.058C1042.68 106.743 1046.26 100.771 1049.86 95.0733C1053.48 89.343 1057.09 83.921 1062.73 80.282Z" fill="#47C880" />
    <path opacity="0.2" d="M224.13 115.908C230.509 119.778 234.243 127.752 236.109 135.852C237.965 144.007 237.898 152.277 235.85 159.843C233.747 167.398 229.663 174.25 224.642 180.905C219.677 187.571 213.841 193.998 206.848 195.521C199.855 197.045 191.662 193.6 184.672 190.178C177.626 186.743 171.729 183.32 166.869 178.791C162.065 174.274 158.353 168.662 155.046 162.216C151.739 155.769 148.826 148.543 148.229 140.421C147.577 132.288 149.285 123.328 154.893 118.809C160.555 114.303 170.118 114.238 178.304 113.885C186.422 113.575 193.163 112.976 200.963 112.542C208.806 112.175 217.763 111.983 224.13 115.908Z" fill="#47C880" />
    <path opacity="0.2" d="M3.61255 153.198C9.69259 129.227 24.259 103.767 46.3783 92.826C68.4907 81.7245 97.8204 84.8347 111.858 103.919C125.903 123.164 124.32 158.075 132.959 179.163C141.597 200.251 160.457 207.515 171.754 222.844C183.206 238.006 187.27 261.546 181.707 286.302C175.977 310.903 160.465 336.888 138.376 344.762C116.442 352.469 87.9321 342.065 66.055 328.314C44.1779 314.563 28.766 297.312 19.2778 279.002C9.95053 260.686 6.5538 241.473 3.56493 220.468C0.421881 199.63 -2.3065 177.163 3.61255 153.198Z" fill="#FFC35C" />
    <path opacity="0.2" d="M1035 167.018C1051.38 172.894 1068.39 187.022 1069.09 208.652C1069.78 230.141 1054.14 258.992 1036.92 261.373C1019.7 263.754 1000.88 239.524 992.32 219.151C983.757 198.779 985.523 182.331 994.167 172.89C1002.89 163.516 1018.62 161.141 1035 167.018Z" fill="#FFC35C" />
    <g opacity="0.1">
        <path opacity="0.1" fill-rule="evenodd" clip-rule="evenodd" d="M1102.52 320.234C1105.77 318.304 1102.77 313.258 1099.52 315.191C1096.28 317.123 1099.27 322.167 1102.52 320.234Z" fill="#000741" />
        <path opacity="0.1" fill-rule="evenodd" clip-rule="evenodd" d="M1093.23 208.356C1096.48 206.427 1093.48 201.38 1090.23 203.314C1086.99 205.245 1089.98 210.29 1093.23 208.356Z" fill="#000741" />
        <path opacity="0.1" fill-rule="evenodd" clip-rule="evenodd" d="M1079.4 238.061C1082.64 236.13 1079.65 231.085 1076.4 233.019C1073.15 234.95 1076.15 239.995 1079.4 238.061Z" fill="#000741" />
        <path opacity="0.1" fill-rule="evenodd" clip-rule="evenodd" d="M1109.39 237.942C1112.64 236.012 1109.64 230.966 1106.4 232.899C1103.15 234.831 1106.15 239.877 1109.39 237.942Z" fill="#000741" />
        <path opacity="0.1" fill-rule="evenodd" clip-rule="evenodd" d="M1099.12 278.423C1102.37 276.491 1099.37 271.447 1096.12 273.381C1092.88 275.31 1095.87 280.356 1099.12 278.423Z" fill="#000741" />
        <path opacity="0.1" fill-rule="evenodd" clip-rule="evenodd" d="M1088.72 169.511C1091.97 167.58 1088.97 162.535 1085.72 164.469C1082.48 166.4 1085.47 171.445 1088.72 169.511Z" fill="#000741" />
        <path opacity="0.1" fill-rule="evenodd" clip-rule="evenodd" d="M1157.46 241.721C1160.71 239.792 1157.71 234.745 1154.46 236.679C1151.22 238.61 1154.22 243.657 1157.46 241.721Z" fill="#000741" />
        <path opacity="0.1" fill-rule="evenodd" clip-rule="evenodd" d="M1149.11 218.056C1152.35 216.126 1149.36 211.08 1146.11 213.013C1142.86 214.945 1145.86 219.991 1149.11 218.056Z" fill="#000741" />
        <path opacity="0.1" fill-rule="evenodd" clip-rule="evenodd" d="M1206.48 225.44C1209.73 223.51 1206.73 218.464 1203.48 220.398C1200.24 222.329 1203.23 227.373 1206.48 225.44Z" fill="#000741" />
        <path opacity="0.1" fill-rule="evenodd" clip-rule="evenodd" d="M1201.89 268.263C1205.14 266.331 1202.14 261.285 1198.89 263.221C1195.65 265.15 1198.64 270.196 1201.89 268.263Z" fill="#000741" />
        <path opacity="0.1" fill-rule="evenodd" clip-rule="evenodd" d="M1184.96 225.362C1188.2 223.431 1185.21 218.386 1181.96 220.32C1178.71 222.249 1181.71 227.296 1184.96 225.362Z" fill="#000741" />
        <path opacity="0.1" fill-rule="evenodd" clip-rule="evenodd" d="M1221.71 210.108C1224.95 208.176 1221.96 203.132 1218.71 205.066C1215.46 206.997 1218.46 212.041 1221.71 210.108Z" fill="#000741" />
        <path opacity="0.1" fill-rule="evenodd" clip-rule="evenodd" d="M1267.35 257.95C1270.59 256.018 1267.6 250.972 1264.35 252.908C1261.1 254.837 1264.1 259.883 1267.35 257.95Z" fill="#000741" />
        <path opacity="0.1" fill-rule="evenodd" clip-rule="evenodd" d="M1255.19 235.114C1258.44 233.182 1255.44 228.138 1252.19 230.071C1248.95 232.003 1251.94 237.047 1255.19 235.114Z" fill="#000741" />
        <path opacity="0.1" fill-rule="evenodd" clip-rule="evenodd" d="M1226.42 256.534C1229.66 254.602 1226.67 249.558 1223.42 251.491C1220.17 253.423 1223.17 258.467 1226.42 256.534Z" fill="#000741" />
        <path opacity="0.1" fill-rule="evenodd" clip-rule="evenodd" d="M1236.24 224.916C1239.48 222.985 1236.49 217.94 1233.24 219.874C1229.99 221.803 1232.99 226.85 1236.24 224.916Z" fill="#000741" />
        <path opacity="0.1" fill-rule="evenodd" clip-rule="evenodd" d="M1187.19 248.372C1190.44 246.441 1187.44 241.396 1184.19 243.33C1180.95 245.259 1183.94 250.306 1187.19 248.372Z" fill="#000741" />
        <path opacity="0.1" fill-rule="evenodd" clip-rule="evenodd" d="M1173.86 201.897C1177.1 199.966 1174.11 194.922 1170.86 196.855C1167.61 198.785 1170.61 203.831 1173.86 201.897Z" fill="#000741" />
        <path opacity="0.1" fill-rule="evenodd" clip-rule="evenodd" d="M1214.04 177.987C1217.28 176.056 1214.29 171.011 1211.04 172.945C1207.79 174.874 1210.79 179.921 1214.04 177.987Z" fill="#000741" />
        <path opacity="0.1" fill-rule="evenodd" clip-rule="evenodd" d="M1258.2 163.164C1261.44 161.235 1258.45 156.188 1255.2 158.122C1251.95 160.053 1254.95 165.1 1258.2 163.164Z" fill="#000741" />
        <path opacity="0.1" fill-rule="evenodd" clip-rule="evenodd" d="M1248.75 207.445C1252 205.516 1249 200.469 1245.75 202.403C1242.51 204.334 1245.5 209.381 1248.75 207.445Z" fill="#000741" />
        <path opacity="0.1" fill-rule="evenodd" clip-rule="evenodd" d="M1198.1 208.949C1201.35 207.02 1198.35 201.973 1195.1 203.907C1191.86 205.838 1194.85 210.883 1198.1 208.949Z" fill="#000741" />
        <path opacity="0.1" fill-rule="evenodd" clip-rule="evenodd" d="M1125.6 183.363C1128.85 181.431 1125.85 176.387 1122.6 178.32C1119.36 180.252 1122.35 185.296 1125.6 183.363Z" fill="#000741" />
        <path opacity="0.1" fill-rule="evenodd" clip-rule="evenodd" d="M1174.88 155.476C1178.12 153.545 1175.13 148.5 1171.88 150.434C1168.64 152.363 1171.63 157.41 1174.88 155.476Z" fill="#000741" />
        <path opacity="0.1" fill-rule="evenodd" clip-rule="evenodd" d="M1245.21 184.659C1248.46 182.728 1245.46 177.683 1242.22 179.617C1238.97 181.546 1241.97 186.593 1245.21 184.659Z" fill="#000741" />
        <path opacity="0.1" fill-rule="evenodd" clip-rule="evenodd" d="M1172.25 179.946C1175.49 178.015 1172.5 172.968 1169.25 174.904C1166 176.833 1169 181.88 1172.25 179.946Z" fill="#000741" />
        <path opacity="0.1" fill-rule="evenodd" clip-rule="evenodd" d="M1152.26 163.202C1155.51 161.27 1152.51 156.226 1149.26 158.159C1146.02 160.089 1149.01 165.135 1152.26 163.202Z" fill="#000741" />
        <path opacity="0.1" fill-rule="evenodd" clip-rule="evenodd" d="M1153.01 183.689C1156.25 181.76 1153.26 176.713 1150.01 178.647C1146.76 180.578 1149.76 185.623 1153.01 183.689Z" fill="#000741" />
        <path opacity="0.1" fill-rule="evenodd" clip-rule="evenodd" d="M1139.76 245.651C1143 243.72 1140.01 238.673 1136.76 240.609C1133.51 242.538 1136.51 247.585 1139.76 245.651Z" fill="#000741" />
        <path opacity="0.1" fill-rule="evenodd" clip-rule="evenodd" d="M1156.77 315.156C1160.02 313.227 1157.02 308.18 1153.77 310.114C1150.53 312.045 1153.53 317.09 1156.77 315.156Z" fill="#000741" />
        <path opacity="0.1" fill-rule="evenodd" clip-rule="evenodd" d="M1134.93 288.065C1138.17 286.134 1135.18 281.09 1131.93 283.023C1128.68 284.955 1131.68 289.999 1134.93 288.065Z" fill="#000741" />
        <path opacity="0.1" fill-rule="evenodd" clip-rule="evenodd" d="M1160.28 280.139C1163.52 278.209 1160.53 273.163 1157.28 275.096C1154.03 277.028 1157.03 282.072 1160.28 280.139Z" fill="#000741" />
        <path opacity="0.1" fill-rule="evenodd" clip-rule="evenodd" d="M1203.05 299.076C1206.29 297.145 1203.3 292.1 1200.05 294.034C1196.8 295.965 1199.8 301.01 1203.05 299.076Z" fill="#000741" />
        <path opacity="0.1" fill-rule="evenodd" clip-rule="evenodd" d="M1174.68 265.841C1177.92 263.912 1174.93 258.865 1171.68 260.799C1168.43 262.73 1171.43 267.775 1174.68 265.841Z" fill="#000741" />
        <path opacity="0.1" fill-rule="evenodd" clip-rule="evenodd" d="M1132.89 267.8C1136.13 265.868 1133.14 260.824 1129.89 262.757C1126.64 264.687 1129.64 269.733 1132.89 267.8Z" fill="#000741" />
        <path opacity="0.1" fill-rule="evenodd" clip-rule="evenodd" d="M1127.41 208.059C1130.65 206.13 1127.66 201.083 1124.41 203.017C1121.16 204.948 1124.16 209.992 1127.41 208.059Z" fill="#000741" />
        <path opacity="0.1" fill-rule="evenodd" clip-rule="evenodd" d="M1124.85 158.036C1128.09 156.107 1125.1 151.06 1121.85 152.994C1118.6 154.925 1121.6 159.972 1124.85 158.036Z" fill="#000741" />
    </g>
    <path d="M8 232L50.6667 240.53C93.3333 249.06 178.667 266.119 264 266.119C349.333 266.119 434.667 249.06 520 246.234C605.333 243.195 690.667 254.924 776 271.824C861.333 289.043 946.667 311.434 1032 308.768C1117.33 306.103 1202.67 277.315 1245.33 263.294L1288 249.06V385.537H1245.33C1202.67 385.537 1117.33 385.537 1032 385.537C946.667 385.537 861.333 385.537 776 385.537C690.667 385.537 605.333 385.537 520 385.537C434.667 385.537 349.333 385.537 264 385.537C178.667 385.537 93.3333 385.537 50.6667 385.537H8V232Z" fill="white" />
    <path opacity="0.2" fill-rule="evenodd" clip-rule="evenodd" d="M496.068 106.654L488.823 103.119C486.353 101.8 483.796 101.511 481.622 102.304C479.548 103.062 477.956 104.717 477.019 107.092L471.988 119.836C470.427 123.793 467.547 126.736 463.879 128.118C460.107 129.542 455.821 129.205 451.813 127.172L443.984 123.203C441.495 121.94 438.94 121.724 436.789 122.594C434.703 123.438 433.083 125.281 432.231 127.784L430.66 132.392C429.146 136.83 426.096 140.069 422.069 141.513C417.88 143.017 413.203 142.395 408.901 139.766C406.313 138.184 403.597 137.742 401.255 138.519C399.086 139.241 397.428 140.919 396.459 143.374L391.722 155.377C390.159 159.335 387.279 162.278 383.612 163.661C379.839 165.084 375.554 164.747 371.545 162.715L362.86 158.309C360.475 157.1 358.009 156.85 355.915 157.606C353.921 158.324 352.36 159.883 351.403 162.114L351.326 162.281L347.318 170.275L341.74 167.457L345.708 159.541C347.343 155.793 350.204 153.022 353.772 151.736C357.5 150.392 361.721 150.752 365.657 152.75L374.344 157.154C376.768 158.384 379.268 158.621 381.385 157.823C383.425 157.054 384.993 155.407 385.919 153.062L390.656 141.06C392.297 136.903 395.352 133.899 399.262 132.599C403.375 131.234 407.946 131.891 412.133 134.449C414.788 136.071 417.559 136.495 419.937 135.641C422.152 134.846 423.863 132.968 424.756 130.352L426.325 125.745C427.769 121.512 430.645 118.339 434.426 116.81C438.269 115.255 442.659 115.552 446.783 117.644L454.611 121.613C457.035 122.842 459.537 123.081 461.652 122.282C463.692 121.512 465.26 119.866 466.185 117.52L471.215 104.777C472.799 100.767 475.726 97.8063 479.457 96.4441C483.301 95.0408 487.642 95.4491 491.685 97.5925L498.778 101.05L496.068 106.654Z" fill="#FFC35C" />
</svg>