<svg width="107" height="20" viewBox="0 0 107 20" fill="none" xmlns="http://www.w3.org/2000/svg">
<path d="M28.8887 15V5.04688H32.375C33.5827 5.04688 34.4987 5.2793 35.123 5.74414C35.7474 6.20443 36.0596 6.88118 36.0596 7.77441C36.0596 8.26204 35.9342 8.69271 35.6836 9.06641C35.4329 9.43555 35.0843 9.70671 34.6377 9.87988C35.1481 10.0075 35.5492 10.265 35.8408 10.6523C36.137 11.0397 36.2852 11.5137 36.2852 12.0742C36.2852 13.0312 35.9798 13.7559 35.3691 14.248C34.7585 14.7402 33.888 14.9909 32.7578 15H28.8887ZM30.9395 10.666V13.3525H32.6963C33.1794 13.3525 33.5553 13.2386 33.8242 13.0107C34.0977 12.7783 34.2344 12.4593 34.2344 12.0537C34.2344 11.1423 33.7627 10.6797 32.8193 10.666H30.9395ZM30.9395 9.2168H32.457C33.4915 9.19857 34.0088 8.78613 34.0088 7.97949C34.0088 7.52832 33.8766 7.20475 33.6123 7.00879C33.3525 6.80827 32.9401 6.70801 32.375 6.70801H30.9395V9.2168ZM42.1299 14.248C41.6423 14.8405 40.9678 15.1367 40.1064 15.1367C39.3135 15.1367 38.7074 14.9089 38.2881 14.4531C37.8734 13.9974 37.6615 13.3298 37.6523 12.4502V7.60352H39.6279V12.3818C39.6279 13.152 39.9788 13.5371 40.6807 13.5371C41.3506 13.5371 41.8109 13.3047 42.0615 12.8398V7.60352H44.0439V15H42.1846L42.1299 14.248ZM49.6904 9.45605C49.4215 9.4196 49.1846 9.40137 48.9795 9.40137C48.2321 9.40137 47.7422 9.6543 47.5098 10.1602V15H45.5342V7.60352H47.4004L47.4551 8.48535C47.8516 7.80632 48.4007 7.4668 49.1025 7.4668C49.3213 7.4668 49.5264 7.49642 49.7178 7.55566L49.6904 9.45605ZM54.8037 9.45605C54.5348 9.4196 54.2979 9.40137 54.0928 9.40137C53.3454 9.40137 52.8555 9.6543 52.623 10.1602V15H50.6475V7.60352H52.5137L52.5684 8.48535C52.9648 7.80632 53.514 7.4668 54.2158 7.4668C54.4346 7.4668 54.6396 7.49642 54.8311 7.55566L54.8037 9.45605ZM55.207 11.2334C55.207 10.4997 55.3483 9.8457 55.6309 9.27148C55.9134 8.69727 56.319 8.25293 56.8477 7.93848C57.3809 7.62402 57.9984 7.4668 58.7002 7.4668C59.6982 7.4668 60.5117 7.77214 61.1406 8.38281C61.7741 8.99349 62.1273 9.82292 62.2002 10.8711L62.2139 11.377C62.2139 12.5117 61.8971 13.4232 61.2637 14.1113C60.6302 14.7949 59.7803 15.1367 58.7139 15.1367C57.6475 15.1367 56.7952 14.7949 56.1572 14.1113C55.5238 13.4277 55.207 12.498 55.207 11.3223V11.2334ZM57.1826 11.377C57.1826 12.0788 57.3148 12.6165 57.5791 12.9902C57.8434 13.3594 58.2217 13.5439 58.7139 13.5439C59.1924 13.5439 59.5661 13.3617 59.835 12.9971C60.1038 12.6279 60.2383 12.04 60.2383 11.2334C60.2383 10.5452 60.1038 10.012 59.835 9.63379C59.5661 9.25553 59.1878 9.06641 58.7002 9.06641C58.2171 9.06641 57.8434 9.25553 57.5791 9.63379C57.3148 10.0075 57.1826 10.5885 57.1826 11.377ZM69.8633 12.3135L70.834 7.60352H72.7412L70.8545 15H69.2002L67.7988 10.3447L66.3975 15H64.75L62.8633 7.60352H64.7705L65.7344 12.3066L67.0879 7.60352H68.5166L69.8633 12.3135ZM72.9805 14.0293C72.9805 13.7148 73.0853 13.4596 73.2949 13.2637C73.5091 13.0677 73.7757 12.9697 74.0947 12.9697C74.4183 12.9697 74.6849 13.0677 74.8945 13.2637C75.1087 13.4596 75.2158 13.7148 75.2158 14.0293C75.2158 14.3392 75.111 14.5921 74.9014 14.7881C74.6917 14.9795 74.4229 15.0752 74.0947 15.0752C73.7712 15.0752 73.5046 14.9795 73.2949 14.7881C73.0853 14.5921 72.9805 14.3392 72.9805 14.0293ZM80.0283 13.5439C80.3929 13.5439 80.6891 13.4437 80.917 13.2432C81.1449 13.0426 81.2633 12.776 81.2725 12.4434H83.125C83.1204 12.9447 82.9837 13.4049 82.7148 13.8242C82.446 14.2389 82.0768 14.5625 81.6074 14.7949C81.1426 15.0228 80.6276 15.1367 80.0625 15.1367C79.0052 15.1367 78.1712 14.8018 77.5605 14.1318C76.9499 13.4574 76.6445 12.5277 76.6445 11.3428V11.2129C76.6445 10.0736 76.9476 9.16439 77.5537 8.48535C78.1598 7.80632 78.9915 7.4668 80.0488 7.4668C80.974 7.4668 81.7145 7.73112 82.2705 8.25977C82.8311 8.78385 83.1159 9.4834 83.125 10.3584H81.2725C81.2633 9.97559 81.1449 9.66569 80.917 9.42871C80.6891 9.18717 80.3883 9.06641 80.0146 9.06641C79.5544 9.06641 79.2057 9.23503 78.9688 9.57227C78.7363 9.90495 78.6201 10.4473 78.6201 11.1992V11.4043C78.6201 12.1654 78.7363 12.7122 78.9688 13.0449C79.2012 13.3776 79.5544 13.5439 80.0283 13.5439ZM88.5391 15C88.4479 14.8223 88.3818 14.6012 88.3408 14.3369C87.8623 14.8701 87.2402 15.1367 86.4746 15.1367C85.75 15.1367 85.1484 14.9271 84.6699 14.5078C84.196 14.0885 83.959 13.5599 83.959 12.9219C83.959 12.138 84.2484 11.5365 84.8271 11.1172C85.4105 10.6979 86.2513 10.486 87.3496 10.4814H88.2588V10.0576C88.2588 9.71582 88.1699 9.44238 87.9922 9.2373C87.819 9.03223 87.5433 8.92969 87.165 8.92969C86.8324 8.92969 86.5703 9.00944 86.3789 9.16895C86.1921 9.32845 86.0986 9.5472 86.0986 9.8252H84.123C84.123 9.39681 84.2552 9.00033 84.5195 8.63574C84.7839 8.27116 85.1576 7.98633 85.6406 7.78125C86.1237 7.57161 86.666 7.4668 87.2676 7.4668C88.179 7.4668 88.9014 7.69694 89.4346 8.15723C89.9723 8.61296 90.2412 9.25553 90.2412 10.085V13.291C90.2458 13.9928 90.3438 14.5238 90.5352 14.8838V15H88.5391ZM86.9053 13.626C87.1969 13.626 87.4658 13.5622 87.7119 13.4346C87.958 13.3024 88.1403 13.127 88.2588 12.9082V11.6367H87.5205C86.5316 11.6367 86.0052 11.9785 85.9414 12.6621L85.9346 12.7783C85.9346 13.0244 86.0212 13.2272 86.1943 13.3867C86.3675 13.5462 86.6045 13.626 86.9053 13.626ZM95.7646 12.9561C95.7646 12.7145 95.6439 12.5254 95.4023 12.3887C95.1654 12.2474 94.7826 12.1221 94.2539 12.0127C92.4948 11.6436 91.6152 10.8962 91.6152 9.77051C91.6152 9.11426 91.8864 8.56738 92.4287 8.12988C92.9756 7.68783 93.6888 7.4668 94.5684 7.4668C95.5072 7.4668 96.2568 7.68783 96.8174 8.12988C97.3825 8.57194 97.665 9.14616 97.665 9.85254H95.6895C95.6895 9.56999 95.5983 9.33757 95.416 9.15527C95.2337 8.96842 94.9489 8.875 94.5615 8.875C94.2288 8.875 93.9714 8.9502 93.7891 9.10059C93.6068 9.25098 93.5156 9.44238 93.5156 9.6748C93.5156 9.89355 93.6182 10.0713 93.8232 10.208C94.0329 10.3402 94.3838 10.4564 94.876 10.5566C95.3682 10.6523 95.7829 10.7617 96.1201 10.8848C97.1637 11.2676 97.6855 11.9307 97.6855 12.874C97.6855 13.5485 97.3962 14.0954 96.8174 14.5146C96.2386 14.9294 95.4912 15.1367 94.5752 15.1367C93.9554 15.1367 93.404 15.0273 92.9209 14.8086C92.4424 14.5853 92.0664 14.2822 91.793 13.8994C91.5195 13.512 91.3828 13.0951 91.3828 12.6484H93.2559C93.2741 12.9993 93.404 13.2682 93.6455 13.4551C93.887 13.6419 94.2106 13.7354 94.6162 13.7354C94.9945 13.7354 95.2793 13.6647 95.4707 13.5234C95.6667 13.3776 95.7646 13.1885 95.7646 12.9561ZM100.892 8.41016C101.416 7.78125 102.074 7.4668 102.867 7.4668C104.471 7.4668 105.285 8.39876 105.308 10.2627V15H103.332V10.3174C103.332 9.89355 103.241 9.58138 103.059 9.38086C102.876 9.17578 102.573 9.07324 102.149 9.07324C101.571 9.07324 101.151 9.29655 100.892 9.74316V15H98.916V4.5H100.892V8.41016Z" fill="#000741"/>
<rect width="20" height="20" rx="4" fill="#000741"/>
</svg>
