<svg width="100%" height="242" viewBox="0 0 1280 242" fill="none" xmlns="http://www.w3.org/2000/svg">
    <path d="M0 242H1280V1.52588e-05H0V242Z" fill="#F8F9FF" />
    <path d="M1280 96.5492L1237.33 91.2014C1194.67 85.8535 1109.33 75.1585 1024 75.1585C938.667 75.1585 853.333 85.8536 768 87.6253C682.667 89.5306 597.333 82.1771 512 71.5818C426.667 60.7865 341.333 46.7486 256 48.42C170.67 50.0908 85.33 68.1393 42.67 76.9296L0 85.8535V0.290256H42.67C85.33 0.290256 170.67 0.290256 256 0.290256C341.333 0.290256 426.667 0.290256 512 0.290256C597.333 0.290256 682.667 0.290256 768 0.290256C853.333 0.290256 938.667 0.290256 1024 0.290256C1109.33 0.290256 1194.67 0.290256 1237.33 0.290256H1280V96.5492Z" fill="white" />
</svg>