<svg width="20" height="20" viewBox="0 0 20 20" fill="none" xmlns="http://www.w3.org/2000/svg">
<g clip-path="url(#clip0_919_13297)">
<path d="M10 0C4.47222 0 0 4.47222 0 10C0 14.0278 2.38889 17.5 5.83333 19.0833C4.69444 17.2222 2.63889 13.3611 2.80556 9.91667C2.97222 6 5.86111 4 8.47222 3.44444C11.1389 2.88889 14.5833 3.16667 15.4444 5.80556C16.4444 8.88889 11.5 10.7222 11.2778 10.8056C11.0278 10.8889 8.72222 11.75 7.38889 11.1389C6.97222 10.9444 6.66667 10.6111 6.5 10.1944C6.27778 9.61111 6.41667 8.97222 6.86111 8.44444C7.94444 7.13889 10.7222 6.55556 13.6111 7.02778C13.4167 7.44444 12.9444 7.86111 12.3889 8.22222C10.0278 8.05556 8.36111 8.69444 7.86111 9.30556C7.66667 9.55556 7.72222 9.69444 7.72222 9.75C7.75 9.80556 7.77778 9.88889 7.91667 9.94444C8.58333 10.25 10.1389 9.83333 10.8056 9.58333C10.8611 9.55556 14.7778 8.08333 14.1667 6.22222C13.5278 4.27778 10.4444 4.36111 8.72222 4.72222C7.69444 4.94444 4.27778 5.97222 4.08333 9.97222C3.97222 13.0556 6.41667 17.5278 7.75 19.75C8.47222 19.9167 9.22222 20 10 20C15.5278 20 20 15.5278 20 10C20 4.47222 15.5278 0 10 0ZM16.8611 12.5833C15.2222 15.0833 12.6389 15.75 10.4722 15.75C9.13889 15.75 7.97222 15.5278 7.19444 15.3056C6.83333 15.2222 6.63889 14.8611 6.72222 14.5C6.80556 14.1389 7.16667 13.9444 7.52778 14.0278C12.6111 15.3333 14.8611 13.2222 15.7778 11.8611C16.1389 11.3056 16.2778 10.6667 16.1389 10.1111C16 9.58333 15.6944 9.16667 15.1944 8.86111C15.5 8.52778 15.7222 8.13889 15.8889 7.75C16.8333 8.33333 17.25 9.13889 17.4167 9.83333C17.6111 10.75 17.4167 11.75 16.8611 12.5833Z" fill="#767788" fill-opacity="0.4"/>
</g>
<defs>
<clipPath id="clip0_919_13297">
<rect width="20" height="20" fill="white"/>
</clipPath>
</defs>
</svg>
