<svg width="28" height="28" viewBox="0 0 28 28" fill="none" xmlns="http://www.w3.org/2000/svg">
<circle cx="14" cy="14" r="14" fill="#594A42"/>
<path fill-rule="evenodd" clip-rule="evenodd" d="M14 0C6.26111 0 0 6.26111 0 14C0 6.26801 6.26801 0 14 0ZM1.91412 21.0707C0.697478 18.9956 0 16.5793 0 14C0 16.5689 0.699184 18.9915 1.91412 21.0707ZM1.91412 21.0707C3.08937 23.082 4.74721 24.7718 6.72163 25.9617C4.74303 24.7552 3.08724 23.0716 1.91412 21.0707ZM10.846 27.6433C9.36808 27.303 7.97961 26.7288 6.72163 25.9617C7.18648 26.2418 7.66888 26.4943 8.16667 26.7167C6.57222 24.1111 3.69444 18.7056 3.92778 13.8833C4.16111 8.4 8.20555 5.6 11.8611 4.82222C15.5944 4.04444 20.4167 4.43333 21.6222 8.12778C23.0147 12.4214 16.1738 14.9836 15.7944 15.1257L15.7889 15.1278C15.7701 15.134 15.7431 15.1434 15.7085 15.1554C15.0968 15.3678 12.1111 16.4041 10.3444 15.5944C9.76111 15.3222 9.33333 14.8556 9.1 14.2722C8.78889 13.4556 8.98333 12.5611 9.60556 11.8222C11.1222 9.99444 15.0111 9.17778 19.0556 9.83889C18.7833 10.4222 18.1222 11.0056 17.3444 11.5111C14.0389 11.2778 11.7056 12.1722 11.0056 13.0278C10.7734 13.3262 10.7958 13.5116 10.8074 13.6079C10.8094 13.6246 10.8111 13.6385 10.8111 13.65C10.8149 13.6575 10.8186 13.6653 10.8225 13.6735C10.8589 13.7499 10.9076 13.8519 11.0833 13.9222C12.0167 14.35 14.1944 13.7667 15.1278 13.4167C15.1315 13.4148 15.1478 13.4082 15.1752 13.3972C15.7185 13.1782 20.6477 11.1913 19.8333 8.71111C18.9389 5.98889 14.6222 6.10556 12.2111 6.61111C10.7722 6.92222 5.98889 8.36111 5.71667 13.9611C5.56122 18.2747 8.9784 24.5299 10.846 27.6433ZM14 28C12.9111 28 11.8611 27.8833 10.85 27.65C10.8487 27.6478 10.8473 27.6455 10.846 27.6433C11.8597 27.8767 12.9154 28 14 28ZM14 0C21.732 0 28 6.26801 28 14C28 6.26111 21.7389 0 14 0ZM28 14C28 21.732 21.732 28 14 28C21.7389 28 28 21.7389 28 14ZM14.6611 22.05C17.6944 22.05 21.3111 21.1167 23.6056 17.6167C24.3833 16.45 24.6556 15.05 24.3833 13.7667C24.15 12.7944 23.5667 11.6667 22.2444 10.85C22.0111 11.3944 21.7 11.9389 21.2722 12.4056C21.9722 12.8333 22.4 13.4167 22.5944 14.1556C22.7889 14.9333 22.5944 15.8278 22.0889 16.6056C20.8056 18.5111 17.6556 21.4667 10.5389 19.6389C10.0333 19.5222 9.52778 19.7944 9.41111 20.3C9.29444 20.8056 9.56667 21.3111 10.0722 21.4278C11.1611 21.7389 12.7944 22.05 14.6611 22.05Z" fill="white"/>
</svg>
