<svg width="91" height="32" viewBox="0 0 91 32" fill="none" xmlns="http://www.w3.org/2000/svg">
<path d="M32.0002 20.3705V11.5557C31.9897 11.4308 32.0057 11.3052 32.0472 11.187C32.0886 11.0688 32.1546 10.9607 32.2408 10.8697C32.3269 10.7788 32.4314 10.7071 32.5472 10.6594C32.663 10.6116 32.7876 10.5889 32.9128 10.5927H36.4446C38.7824 10.5927 40.0624 11.5705 40.0624 13.3808C40.0624 14.5423 39.3987 15.3216 38.1691 15.686C39.7632 16.0505 40.492 17.0638 40.492 18.3231C40.492 20.3319 39.215 21.3275 36.412 21.3275H32.9128C32.7881 21.3312 32.6641 21.3086 32.5487 21.2612C32.4333 21.2138 32.3292 21.1427 32.2431 21.0524C32.1571 20.9622 32.091 20.8548 32.0491 20.7373C32.0072 20.6198 31.9906 20.4948 32.0002 20.3705ZM36.3143 15.2771C37.5765 15.2771 38.2876 14.6134 38.2876 13.5853C38.2876 12.5571 37.6743 11.9764 36.2817 11.9764H33.692V15.2771H36.3143ZM36.3795 19.9557C38.1069 19.9557 38.7498 19.4431 38.7498 18.1986C38.7498 17.0697 38.0357 16.5038 36.4417 16.5038H33.7039V19.9557H36.3795Z" fill="#000741"/>
<path d="M44.8265 21.5318C42.7198 21.5318 41.7568 20.1066 41.7568 18.1155V14.0651C41.7568 13.4725 42.0531 13.2681 42.4709 13.2681H42.6665C43.0961 13.2681 43.3954 13.4518 43.3954 14.0651V17.917C43.3954 19.2947 44.0917 20.1095 45.3035 20.1095C45.7655 20.1102 46.2179 19.9774 46.6063 19.7272C46.9947 19.477 47.3026 19.1201 47.4931 18.6992V14.0651C47.4931 13.4725 47.7894 13.2681 48.2072 13.2681H48.3909C48.8206 13.2681 49.1198 13.4518 49.1198 14.0651V21.2177C49.0383 21.2861 48.9438 21.3374 48.842 21.3685C48.7401 21.3995 48.6331 21.4097 48.5272 21.3984C48.0294 21.3984 47.5317 21.1495 47.4813 20.1392C47.1943 20.5785 46.7997 20.9371 46.335 21.1808C45.8704 21.4246 45.351 21.5454 44.8265 21.5318V21.5318Z" fill="#000741"/>
<path d="M54.7823 13.1528C55.612 13.1528 56.0949 13.5528 56.0949 14.2165C56.0949 14.8802 55.6297 15.1054 55.5972 15.061C55.3112 14.8289 54.952 14.706 54.5838 14.7143C53.289 14.7143 52.7764 15.9736 52.7764 17.8165V20.6195C52.7764 21.2121 52.4594 21.3988 52.0446 21.3988H51.852C51.4194 21.3988 51.1201 21.218 51.1201 20.6195V13.4521C51.2857 13.3151 51.4987 13.2491 51.7127 13.2684C52.2105 13.2684 52.726 13.5351 52.7409 14.6639C53.1083 13.6832 53.772 13.1528 54.7823 13.1528Z" fill="#000741"/>
<path d="M60.957 13.1528C61.7867 13.1528 62.2667 13.5528 62.2667 14.2165C62.2667 14.8802 61.8015 15.1054 61.7689 15.061C61.4832 14.8284 61.1238 14.7055 60.7555 14.7143C59.4637 14.7143 58.9481 15.9736 58.9481 17.8165V20.6195C58.9481 21.2121 58.6311 21.3988 58.2192 21.3988H58.0355C57.6029 21.3988 57.3066 21.218 57.3066 20.6195V13.4521C57.3884 13.3838 57.4828 13.3325 57.5846 13.3009C57.6863 13.2694 57.7932 13.2583 57.8992 13.2684C58.397 13.2684 58.9126 13.5351 58.9274 14.6639C59.28 13.6832 59.9437 13.1528 60.957 13.1528Z" fill="#000741"/>
<path d="M62.8149 17.3336C62.8149 14.8951 64.5423 13.1528 67.0135 13.1528C69.4846 13.1528 71.1794 14.9128 71.1794 17.3691C71.1794 19.8254 69.452 21.5499 66.9986 21.5499C64.5453 21.5499 62.8149 19.8076 62.8149 17.3336ZM69.6535 17.3691C69.6535 15.7099 68.5394 14.498 66.9868 14.498C65.4342 14.498 64.3201 15.6832 64.3201 17.3336C64.3201 18.9839 65.4638 20.2047 66.9868 20.2047C68.5098 20.2047 69.6535 18.9928 69.6535 17.3691V17.3691Z" fill="#000741"/>
<path d="M73.5409 20.9008L71.5498 13.7511C71.5172 13.6504 72.0475 13.2682 72.5275 13.2682C72.8772 13.2682 73.2594 13.4696 73.3898 14.1571L74.6372 19.7482L76.1631 14.9215C76.2787 14.5215 76.5601 14.3289 77.1735 14.3289C77.7868 14.3289 78.0624 14.5096 78.169 14.9215L79.6505 19.7156L80.889 14.1482C81.0046 13.4696 81.4046 13.2593 81.7364 13.2593C82.2164 13.2593 82.6994 13.6593 82.6816 13.7422L80.7053 20.8919C80.6075 21.2919 80.3083 21.4252 79.7127 21.4252C79.0312 21.4252 78.8475 21.2919 78.6994 20.8326L77.1557 16.003L75.5557 20.8534C75.4046 21.283 75.2061 21.4459 74.5572 21.4459C73.9557 21.4341 73.6564 21.3008 73.5409 20.9008Z" fill="#000741"/>
<path d="M16.0002 5.3335C13.5659 5.33293 11.2047 6.16502 9.30852 7.69161C7.41237 9.21819 6.09543 11.3474 5.57637 13.7257C5.05731 16.1041 5.36737 18.5884 6.45505 20.7662C7.54273 22.944 9.3426 24.6842 11.5558 25.6979C10.3321 23.7039 8.16023 19.5765 8.32616 15.8994C8.51283 11.7098 11.5854 9.58238 14.3765 8.98979C17.2269 8.3972 20.8951 8.6935 21.8017 11.5202C22.8684 14.8002 17.5884 16.7587 17.3573 16.8535C17.1262 16.9483 14.6343 17.855 13.2091 17.1942C12.9906 17.0982 12.7941 16.9585 12.6315 16.7837C12.469 16.609 12.3439 16.4028 12.2639 16.1779C12.1541 15.8619 12.1319 15.522 12.1997 15.1944C12.2675 14.8668 12.4228 14.5636 12.6491 14.3172C13.8254 12.9187 16.7706 12.3024 19.8521 12.7883C19.5296 13.3112 19.0814 13.7451 18.5484 14.0505C16.0417 13.8846 14.2551 14.5661 13.7158 15.2091C13.4965 15.4698 13.5528 15.6268 13.5765 15.695C13.5937 15.7447 13.6218 15.7899 13.6587 15.8273C13.6956 15.8647 13.7404 15.8934 13.7899 15.9113C14.4951 16.2372 16.1602 15.7928 16.8625 15.529C16.9158 15.5083 21.0965 13.9231 20.4595 11.9528C19.7839 9.87868 16.4921 9.97053 14.6551 10.3616C13.5439 10.5957 9.91431 11.695 9.71283 15.9616C9.56468 19.2505 12.1573 24.0268 13.5854 26.3913C15.0494 26.7306 16.5686 26.7568 18.0434 26.4681C19.5182 26.1794 20.9154 25.5824 22.1434 24.716C23.3713 23.8497 24.4024 22.7336 25.1689 21.441C25.9355 20.1484 26.4203 18.7084 26.5915 17.2154C26.7627 15.7224 26.6165 14.21 26.1625 12.7774C25.7084 11.3449 24.9568 10.0244 23.9568 8.90256C22.9568 7.78073 21.7311 6.88286 20.3599 6.26779C18.9887 5.65272 17.5031 5.33434 16.0002 5.3335V5.3335ZM23.3247 18.7646C21.5676 21.4313 18.8328 22.1305 16.5099 22.1305C15.328 22.123 14.1515 21.9687 13.0076 21.6713C12.8277 21.6249 12.6735 21.509 12.5791 21.3489C12.4846 21.1889 12.4576 20.9979 12.5039 20.8179C12.5503 20.638 12.6663 20.4838 12.8263 20.3894C12.9863 20.2949 13.1773 20.2679 13.3573 20.3142C18.7765 21.7098 21.1943 19.4639 22.1514 17.9972C22.3348 17.7289 22.462 17.4263 22.5252 17.1074C22.5883 16.7886 22.5861 16.4603 22.5188 16.1424C22.4498 15.8616 22.325 15.5976 22.152 15.366C21.9789 15.1344 21.761 14.94 21.5114 14.7942C21.8184 14.4401 22.0684 14.0403 22.2521 13.6091C22.6591 13.8495 23.0134 14.1698 23.2934 14.5506C23.5735 14.9315 23.7736 15.3651 23.8817 15.8253C23.9915 16.3275 23.9987 16.8467 23.903 17.3518C23.8072 17.8568 23.6106 18.3374 23.3247 18.7646V18.7646Z" fill="#000741"/>
</svg>
