<svg width="51" height="31" viewBox="0 0 51 31" fill="none" xmlns="http://www.w3.org/2000/svg">
<path fill-rule="evenodd" clip-rule="evenodd" d="M15.857 0.0921522C17.597 -0.0078478 19.335 0.0001522 21.075 0.0001522C21.087 0.0001522 29.892 0.0001522 29.892 0.0001522C31.666 0.0001522 33.404 -0.0078478 35.143 0.0921522C36.724 0.182152 38.264 0.374152 39.797 0.803152C43.024 1.70515 45.842 3.58915 47.879 6.26015C49.904 8.91415 51 12.1632 51 15.4992C51 18.8392 49.904 22.0862 47.879 24.7402C45.842 27.4102 43.024 29.2952 39.797 30.1972C38.264 30.6262 36.724 30.8172 35.143 30.9082C33.404 31.0082 31.666 30.9992 29.926 30.9992C29.914 30.9992 21.107 31.0002 21.107 31.0002C19.335 30.9992 17.597 31.0082 15.857 30.9082C14.277 30.8172 12.737 30.6262 11.204 30.1972C7.977 29.2952 5.159 27.4102 3.122 24.7402C1.097 22.0862 0 18.8392 0 15.5002C0 12.1632 1.097 8.91415 3.122 6.26015C5.159 3.58915 7.977 1.70515 11.204 0.803152C12.737 0.374152 14.277 0.182152 15.857 0.0921522Z" fill="white" fill-opacity="0.2"/>
<path fill-rule="evenodd" clip-rule="evenodd" d="M35.5 29C42.9558 29 49 22.9558 49 15.5C49 8.04416 42.9558 2 35.5 2C28.0442 2 22 8.04416 22 15.5C22 22.9558 28.0442 29 35.5 29Z" fill="#000424"/>
<path fill-rule="evenodd" clip-rule="evenodd" d="M39.5959 21.2922C39.772 21.172 39.6401 20.9035 39.4291 20.9337C39.1256 20.9771 38.8154 20.9996 38.5 20.9996C34.9101 20.9996 32 18.0894 32 14.4996C32 11.9303 33.4907 9.70917 35.6543 8.65393C35.8144 8.57585 35.7759 8.3291 35.5978 8.3291V8.3291C31.6778 8.3291 28.5 11.5069 28.5 15.4269C28.5 19.3468 31.6778 22.5246 35.5978 22.5246C37.0807 22.5246 38.4573 22.0699 39.5959 21.2922Z" fill="#FFF4BB"/>
</svg>
